<svg width="37" height="26" viewBox="0 0 37 26" fill="none" xmlns="http://www.w3.org/2000/svg">
<path d="M6.76229 13.7319C7.3517 13.7319 7.9203 13.8217 8.45423 13.9875L9.23086 12.461C8.23927 12.1226 7.22688 11.9637 6.17982 12.0604C5.59042 12.1088 5.1397 11.6598 5.1189 11.0935L5.1397 9.3184C5.20211 9.01449 6.72069 1.94874 13.5162 1.0094C14.168 0.912708 14.8683 1.57577 14.5494 2.34934C14.3899 2.71541 14.2235 3.15054 14.064 3.6133L15.6588 2.71541C16.1304 2.45295 16.7267 2.61871 16.9902 3.08147C17.2537 3.55114 17.0873 4.14513 16.6227 4.4076L13.3567 6.24483C13.2527 6.79738 13.1833 7.3223 13.1833 7.78507C14.0986 7.41209 15.43 7.06675 16.8931 7.33612C18.4186 7.61239 19.7569 8.47575 20.8941 9.89857C23.5014 8.66915 31.9819 5.18117 35.8303 9.88476C35.969 10.0574 36.0522 10.2785 36.0522 10.4995V13.0619C36.0522 13.7733 35.2409 14.3535 34.499 13.8493C33.2924 12.9652 31.864 12.5025 30.3732 12.5025C28.7922 12.5025 27.336 13.0343 26.1641 13.9184L27.0517 14.8025C27.9947 14.1394 29.1389 13.7388 30.3801 13.7388C33.5629 13.7388 36.1562 16.322 36.1562 19.4922C36.1562 22.6625 33.5629 25.2457 30.3801 25.2457C27.1973 25.2457 24.6039 22.6625 24.6039 19.4922C24.6039 18.2559 24.9992 17.1163 25.6718 16.1769L24.7842 15.2929C23.8966 16.4601 23.3627 17.9106 23.3627 19.4922C23.3627 20.031 22.9258 20.4661 22.385 20.4661H15.2359C14.695 20.4661 14.2581 20.031 14.2581 19.4922C14.2581 16.9367 12.9614 14.6781 10.9852 13.3382L10.2086 14.8784C11.6301 15.9283 12.5523 17.5998 12.5523 19.4922C12.5523 22.6625 9.95895 25.2457 6.77616 25.2457C3.59338 25.2457 1 22.6625 1 19.4922C1 16.322 3.57951 13.7319 6.76229 13.7319ZM30.3662 23.291C32.4742 23.291 34.1869 21.585 34.1869 19.4853C34.1869 17.3856 32.4742 15.6796 30.3662 15.6796C29.6659 15.6796 29.0141 15.873 28.4455 16.1977L31.0527 18.7947C31.4341 19.1745 31.4341 19.7892 31.0527 20.1691C30.6713 20.549 30.0542 20.549 29.6728 20.1691L27.0655 17.5721C26.7327 18.1316 26.5455 18.7877 26.5455 19.4853C26.5455 21.585 28.2582 23.291 30.3662 23.291ZM16.1442 18.5115H21.4489C21.9343 14.0427 25.7481 10.5547 30.3593 10.5547C31.6629 10.5547 32.9249 10.831 34.0829 11.3628V10.8655C30.4425 7.07366 21.1299 11.943 21.0328 11.9983C20.589 12.2331 20.0412 12.095 19.7639 11.6806C18.8416 10.2992 17.7599 9.48416 16.5464 9.25623C14.6811 8.91089 13.0377 10.0367 13.0239 10.0505C12.587 10.3752 11.8589 10.2646 11.5677 9.65683C10.8119 7.98536 11.4845 5.20189 12.0808 3.37156C8.33635 4.82892 7.22688 8.93161 7.0674 9.61539V10.092C11.8034 10.2439 15.6658 13.8839 16.1442 18.5115ZM6.76229 23.291C8.87028 23.291 10.583 21.585 10.583 19.4853C10.583 18.3526 10.0838 17.3373 9.29327 16.6397L7.636 19.9205C7.3933 20.397 6.8039 20.5904 6.32544 20.3487C5.84698 20.107 5.65283 19.5199 5.89552 19.0433L7.55972 15.7556C7.30316 15.7004 7.03966 15.6727 6.76923 15.6727C4.66124 15.6727 2.9485 17.3787 2.9485 19.4784C2.94157 21.585 4.65431 23.291 6.76229 23.291Z" fill="#894302" stroke="#FFB571" stroke-width="0.5"/>
</svg>
