<svg width="49" height="26" viewBox="0 0 49 26" fill="none" xmlns="http://www.w3.org/2000/svg">
<path fill-rule="evenodd" clip-rule="evenodd" d="M11.973 17.6016C10.607 17.6016 9.49525 18.6877 9.49525 20.0226C9.49525 21.3572 10.6069 22.4435 11.973 22.4435C13.339 22.4435 14.4507 21.3574 14.4507 20.0226C14.4507 18.6877 13.339 17.6016 11.973 17.6016ZM11.973 20.8295C11.5172 20.8295 11.1471 20.4679 11.1471 20.0226C11.1471 19.5772 11.5172 19.2156 11.973 19.2156C12.4288 19.2156 12.7989 19.5772 12.7989 20.0226C12.7989 20.4679 12.4288 20.8295 11.973 20.8295Z" fill="#894302"/>
<path fill-rule="evenodd" clip-rule="evenodd" d="M36.9599 17.3214C35.5939 17.3214 34.4821 18.4075 34.4821 19.7423C34.4821 21.077 35.5938 22.1633 36.9599 22.1633C38.3259 22.1633 39.4376 21.0772 39.4376 19.7423C39.4376 18.4075 38.326 17.3214 36.9599 17.3214ZM36.9599 20.5493C36.5041 20.5493 36.134 20.1877 36.134 19.7423C36.134 19.2969 36.5041 18.9354 36.9599 18.9354C37.4157 18.9354 37.7857 19.2969 37.7857 19.7423C37.7859 20.1877 37.4161 20.5493 36.9599 20.5493Z" fill="#894302"/>
<path fill-rule="evenodd" clip-rule="evenodd" d="M41.1785 7.55405C42.2885 7.55405 43.2327 8.264 43.5641 9.24468C45.9973 9.5844 47.8748 11.6403 47.875 14.1194V15.7609C47.875 18.4766 45.6225 20.6851 42.8526 20.6851H42.7857C42.3772 23.4641 39.939 25.6094 36.9933 25.6094C34.0476 25.6094 31.6094 23.4641 31.2009 20.6851H17.6741C17.2656 23.4641 14.8274 25.6094 11.8817 25.6094C8.93604 25.6094 6.49782 23.4641 6.08926 20.6851H3.74805C2.23294 20.6851 1 19.4763 1 17.9908V15.0789C1 12.6693 2.57787 10.5758 4.92583 9.86665L12.2291 7.66389L16.996 1.90103C17.7101 1.03936 18.9271 0.758631 19.9559 1.22075C21.188 1.7722 21.743 3.20855 21.193 4.42232L19.5096 8.13432C19.4016 8.37232 19.4225 8.63322 19.5674 8.85241C19.7123 9.07075 19.9483 9.19552 20.2128 9.19552H22.2895L23.9334 6.50861C24.4682 5.63456 25.4459 5.09209 26.4847 5.09209C28.1253 5.09209 29.4596 6.40029 29.4596 8.00887V9.19552H34.1488C35.3433 8.14906 36.9177 7.55405 38.5233 7.55405H41.1785ZM26.4851 6.73339C26.0307 6.73339 25.6038 6.97055 25.3693 7.35299L24.2417 9.19535H27.7858V8.0087C27.7858 7.30536 27.2024 6.73339 26.4851 6.73339ZM7.69653 19.8647C7.69653 22.1272 9.57403 23.9681 11.8817 23.9681C14.1894 23.9681 16.0669 22.1272 16.0669 19.8647C16.0669 17.6021 14.1894 15.7612 11.8817 15.7612C9.57403 15.7612 7.69653 17.6021 7.69653 19.8647ZM32.8079 19.8647C32.8079 22.1272 34.6854 23.9681 36.9931 23.9681C39.3011 23.9681 41.1785 22.1272 41.1783 19.8647C41.1783 17.6021 39.3008 15.7612 36.9931 15.7612C34.6854 15.7612 32.8079 17.6021 32.8079 19.8647ZM42.8526 19.0438C44.6992 19.0438 46.2008 17.5715 46.2008 15.7611V14.1199C46.2008 12.3094 44.6992 10.8372 42.8526 10.8372H42.0156V10.0165C42.0156 9.56355 41.6406 9.19586 41.1786 9.19586H38.5234C37.2393 9.19586 35.9822 9.70628 35.0739 10.5968L34.8288 10.8372H20.213C19.3834 10.8372 18.6175 10.4301 18.1647 9.74731C17.7118 9.06448 17.6432 8.21264 17.9797 7.46912L19.663 3.75627C19.8421 3.36078 19.6613 2.89375 19.2603 2.71321C18.9271 2.56471 18.5305 2.65337 18.2969 2.93562L13.2094 9.08601L5.41894 11.4364C3.82343 11.9173 2.74541 13.3166 2.68593 14.9408H4.76676C4.99706 14.9408 5.18535 14.7561 5.18535 14.5303C5.18535 14.3045 4.99689 14.1199 4.76676 14.1199H4.34818V12.4785H4.76676C5.92103 12.4785 6.85935 13.3984 6.85935 14.5302C6.85935 15.6619 5.92103 16.5819 4.76676 16.5819H2.67418V17.9909C2.67418 18.5719 3.15535 19.0438 3.74805 19.0438H6.08926C6.49782 16.2649 8.93604 14.1196 11.8817 14.1196C14.8274 14.1196 17.2656 16.2649 17.6741 19.0438H31.2009C31.6094 16.2649 34.0476 14.1196 36.9933 14.1196C39.939 14.1196 42.3772 16.2649 42.7857 19.0438H42.8526Z" fill="#894302"/>
<path fill-rule="evenodd" clip-rule="evenodd" d="M11.973 17.6016C10.607 17.6016 9.49525 18.6877 9.49525 20.0226C9.49525 21.3572 10.6069 22.4435 11.973 22.4435C13.339 22.4435 14.4507 21.3574 14.4507 20.0226C14.4507 18.6877 13.339 17.6016 11.973 17.6016ZM11.973 20.8295C11.5172 20.8295 11.1471 20.4679 11.1471 20.0226C11.1471 19.5772 11.5172 19.2156 11.973 19.2156C12.4288 19.2156 12.7989 19.5772 12.7989 20.0226C12.7989 20.4679 12.4288 20.8295 11.973 20.8295Z" stroke="#FFB571" stroke-width="0.4"/>
<path fill-rule="evenodd" clip-rule="evenodd" d="M36.9599 17.3214C35.5939 17.3214 34.4821 18.4075 34.4821 19.7423C34.4821 21.077 35.5938 22.1633 36.9599 22.1633C38.3259 22.1633 39.4376 21.0772 39.4376 19.7423C39.4376 18.4075 38.326 17.3214 36.9599 17.3214ZM36.9599 20.5493C36.5041 20.5493 36.134 20.1877 36.134 19.7423C36.134 19.2969 36.5041 18.9354 36.9599 18.9354C37.4157 18.9354 37.7857 19.2969 37.7857 19.7423C37.7859 20.1877 37.4161 20.5493 36.9599 20.5493Z" stroke="#FFB571" stroke-width="0.4"/>
<path fill-rule="evenodd" clip-rule="evenodd" d="M41.1785 7.55405C42.2885 7.55405 43.2327 8.264 43.5641 9.24468C45.9973 9.5844 47.8748 11.6403 47.875 14.1194V15.7609C47.875 18.4766 45.6225 20.6851 42.8526 20.6851H42.7857C42.3772 23.4641 39.939 25.6094 36.9933 25.6094C34.0476 25.6094 31.6094 23.4641 31.2009 20.6851H17.6741C17.2656 23.4641 14.8274 25.6094 11.8817 25.6094C8.93604 25.6094 6.49782 23.4641 6.08926 20.6851H3.74805C2.23294 20.6851 1 19.4763 1 17.9908V15.0789C1 12.6693 2.57787 10.5758 4.92583 9.86665L12.2291 7.66389L16.996 1.90103C17.7101 1.03936 18.9271 0.758631 19.9559 1.22075C21.188 1.7722 21.743 3.20855 21.193 4.42232L19.5096 8.13432C19.4016 8.37232 19.4225 8.63322 19.5674 8.85241C19.7123 9.07075 19.9483 9.19552 20.2128 9.19552H22.2895L23.9334 6.50861C24.4682 5.63456 25.4459 5.09209 26.4847 5.09209C28.1253 5.09209 29.4596 6.40029 29.4596 8.00887V9.19552H34.1488C35.3433 8.14906 36.9177 7.55405 38.5233 7.55405H41.1785ZM26.4851 6.73339C26.0307 6.73339 25.6038 6.97055 25.3693 7.35299L24.2417 9.19535H27.7858V8.0087C27.7858 7.30536 27.2024 6.73339 26.4851 6.73339ZM7.69653 19.8647C7.69653 22.1272 9.57403 23.9681 11.8817 23.9681C14.1894 23.9681 16.0669 22.1272 16.0669 19.8647C16.0669 17.6021 14.1894 15.7612 11.8817 15.7612C9.57403 15.7612 7.69653 17.6021 7.69653 19.8647ZM32.8079 19.8647C32.8079 22.1272 34.6854 23.9681 36.9931 23.9681C39.3011 23.9681 41.1785 22.1272 41.1783 19.8647C41.1783 17.6021 39.3008 15.7612 36.9931 15.7612C34.6854 15.7612 32.8079 17.6021 32.8079 19.8647ZM42.8526 19.0438C44.6992 19.0438 46.2008 17.5715 46.2008 15.7611V14.1199C46.2008 12.3094 44.6992 10.8372 42.8526 10.8372H42.0156V10.0165C42.0156 9.56355 41.6406 9.19586 41.1786 9.19586H38.5234C37.2393 9.19586 35.9822 9.70628 35.0739 10.5968L34.8288 10.8372H20.213C19.3834 10.8372 18.6175 10.4301 18.1647 9.74731C17.7118 9.06448 17.6432 8.21264 17.9797 7.46912L19.663 3.75627C19.8421 3.36078 19.6613 2.89375 19.2603 2.71321C18.9271 2.56471 18.5305 2.65337 18.2969 2.93562L13.2094 9.08601L5.41894 11.4364C3.82343 11.9173 2.74541 13.3166 2.68593 14.9408H4.76676C4.99706 14.9408 5.18535 14.7561 5.18535 14.5303C5.18535 14.3045 4.99689 14.1199 4.76676 14.1199H4.34818V12.4785H4.76676C5.92103 12.4785 6.85935 13.3984 6.85935 14.5302C6.85935 15.6619 5.92103 16.5819 4.76676 16.5819H2.67418V17.9909C2.67418 18.5719 3.15535 19.0438 3.74805 19.0438H6.08926C6.49782 16.2649 8.93604 14.1196 11.8817 14.1196C14.8274 14.1196 17.2656 16.2649 17.6741 19.0438H31.2009C31.6094 16.2649 34.0476 14.1196 36.9933 14.1196C39.939 14.1196 42.3772 16.2649 42.7857 19.0438H42.8526Z" stroke="#FFB571" stroke-width="0.4"/>
</svg>
