<svg width="17" height="16" viewBox="0 0 17 16" fill="none" xmlns="http://www.w3.org/2000/svg">
<path fill-rule="evenodd" clip-rule="evenodd" d="M14.4999 9.05818e-06C15.0802 -5.63367e-05 15.6367 0.230436 16.047 0.640789C16.9011 1.49509 16.901 2.88011 16.0467 3.73431L8.51993 11.2612C8.45728 11.324 8.38077 11.3713 8.29655 11.3995L4.86801 12.5423C4.80974 12.5615 4.74879 12.5713 4.68745 12.5714C4.62624 12.5714 4.56543 12.5615 4.50729 12.5421C4.20792 12.4424 4.046 12.1188 4.14573 11.8194L5.28855 8.39084C5.31674 8.3068 5.36382 8.23033 5.42627 8.16742L12.9531 0.641157C13.3622 0.229226 13.9193 -0.00166669 14.4999 9.05818e-06ZM7.81028 10.3554L15.2388 2.92685C15.4351 2.73118 15.5451 2.4652 15.5444 2.18801C15.5436 1.91228 15.4338 1.64807 15.2391 1.4529C14.8314 1.04435 14.1696 1.04369 13.761 1.45143L6.32969 8.87999L5.59087 11.0966L7.81028 10.3554Z" fill="#FC983C"/>
<path d="M13.2588 8.57145C13.2588 8.25584 13.5146 8.00001 13.8302 8.00001C14.1458 8.00001 14.4016 8.25584 14.4016 8.57141V14.2857C14.4016 15.2325 13.6341 16 12.6874 16H2.40174C1.455 16 0.6875 15.2325 0.6875 14.2857V2.85714C0.6875 1.91037 1.455 1.14286 2.40174 1.14286H9.25882C9.57441 1.14286 9.83023 1.39866 9.83023 1.71426C9.83023 2.02987 9.57441 2.28571 9.25882 2.28571H2.40174C2.08615 2.28571 1.83033 2.54154 1.83033 2.85714V14.2857C1.83033 14.6013 2.08615 14.8572 2.40174 14.8572H12.6873C13.0029 14.8572 13.2588 14.6013 13.2588 14.2857V8.57145Z" fill="#FC983C"/>
</svg>
