<svg width="37" height="30" viewBox="0 0 37 30" fill="none" xmlns="http://www.w3.org/2000/svg">
<path fill-rule="evenodd" clip-rule="evenodd" d="M0.754868 0.000871642C0.325414 0.0415512 -0.0020729 0.402721 9.87905e-06 0.834205V23.3542C9.87905e-06 23.8142 0.372805 24.1873 0.833046 24.1873H35.8237C36.2839 24.1873 36.6567 23.8142 36.6567 23.3542V0.834205C36.6567 0.373949 36.2839 0.00116918 35.8237 0.000871642H0.833046C0.806895 -0.000290547 0.78102 -0.000290547 0.754868 0.000871642ZM1.66608 1.66694H34.9905V22H18H1.66608V1.66694Z" fill="#894302"/>
<path d="M11.7501 29.9368L11.7351 29.1867C11.7347 29.1816 11.7345 29.1764 11.7345 29.1713L11.3065 29.1781L11.2351 29.1792M11.7501 29.9368L11.2348 29.1792C11.2348 29.1791 11.2348 29.1791 11.2348 29.179C11.2305 28.9597 11.259 28.7484 11.3127 28.5505L11.588 28.8256L11.5883 28.8259L11.2351 29.1792M11.7501 29.9368C11.4518 29.8137 11.2402 29.5222 11.2345 29.1798C11.2345 29.1797 11.2345 29.1796 11.2345 29.1795L11.2348 29.1795M11.7501 29.9368L11.2348 29.1795M11.2351 29.1792L11.2348 29.1795M11.2351 29.1792L11.2348 29.1795M14.0618 26.6814L13.695 26.3416L14.0618 26.6814ZM14.0618 26.6814C14.1346 26.6028 14.2188 26.5005 14.2808 26.3571C14.3414 26.2167 14.3666 26.0704 14.3762 25.9175L14.379 25.8742L14.3742 25.8311C14.3705 25.7971 14.3722 25.7624 14.3792 25.7288L14.39 25.6778V25.6672C14.3914 25.6624 14.3929 25.6577 14.3945 25.6531L14.449 25.5703L14.5744 25.4568L14.5744 25.4566C14.5869 25.4514 14.5998 25.4468 14.6131 25.443L14.6312 25.4379L14.6488 25.4314C14.6572 25.4283 14.6657 25.4255 14.6743 25.4231C14.6746 25.4231 14.6749 25.4231 14.6752 25.4231L14.6927 25.4239L14.7102 25.4234C14.7327 25.4229 14.755 25.4246 14.7768 25.4286L14.8213 25.4367H14.8665H21.7788H21.8239L21.8684 25.4286C21.8901 25.4246 21.9125 25.4229 21.9354 25.4234L21.9354 25.4236L21.9494 25.4236C21.9943 25.4235 22.0386 25.4324 22.0793 25.4495L22.0925 25.4551L22.0987 25.4573M14.0618 26.6814L22.0987 25.4573M22.7796 25.8727L22.7812 25.8726L22.7812 25.8726C22.7818 25.8686 22.7823 25.8646 22.7828 25.8606L22.7055 25.8624L22.7791 25.8726L22.7796 25.8727ZM22.7796 25.8727L22.7751 25.8729L22.4842 25.8869L22.7833 25.9074C22.7825 25.8963 22.7818 25.8847 22.7812 25.8729L22.7812 25.8729L22.7796 25.8727ZM22.2677 25.6363L22.2736 25.6494C22.2748 25.6522 22.2765 25.6562 22.2787 25.6619C22.2802 25.6657 22.2819 25.6703 22.2839 25.6759L22.5423 25.5841L22.7191 25.5213L22.755 25.5085H22.5878M22.2677 25.6363L22.3775 25.2206L22.4239 25.1693L22.4688 25.1196L22.4816 25.1055V25.2053V25.213V25.2276V25.2304M22.2677 25.6363L22.263 25.626L22.2304 25.5764L22.12 25.4765L22.1148 25.4733L22.1029 25.461M22.2677 25.6363L22.1029 25.461M22.2677 25.6363L22.266 25.6305M22.2677 25.6363L22.266 25.6305M22.5878 25.5085L22.5992 25.5022L22.7055 25.4434L22.7292 25.4304H22.591H22.5769M22.5878 25.5085L22.5646 25.5213L22.4816 25.5672V25.602V25.6055H22.4698H22.4688H22.4123L22.3463 25.6419L22.2916 25.6722C22.2893 25.6681 22.287 25.664 22.2847 25.6601C22.2822 25.6559 22.2797 25.6517 22.2772 25.6477C22.2755 25.6451 22.2738 25.6425 22.2722 25.64L22.266 25.6305M22.5878 25.5085H22.5852H22.4816V25.5022V25.4959L22.5579 25.4434L22.5769 25.4304M22.5769 25.4304L22.6714 25.3653L22.69 25.3525H22.5868H22.5802M22.5769 25.4304H22.4955L22.5311 25.3976L22.5663 25.3653L22.5802 25.3525M22.5802 25.3525L22.6368 25.3005L22.651 25.2874H22.5517H22.5271M22.5802 25.3525H22.4928H22.4816V25.3285L22.5127 25.3005L22.5271 25.2874M22.5271 25.2874L22.5856 25.2345L22.5987 25.2226L22.5029 25.229L22.492 25.2297L22.4912 25.2298L22.4816 25.2304M22.5271 25.2874H22.4816V25.241V25.24V25.2304M22.4816 25.2304L22.2526 25.603M22.0987 25.4573L22.1029 25.461M22.0987 25.4573L22.1029 25.461M22.2526 25.603L22.2608 25.6131L22.266 25.6305M22.2526 25.603L22.2329 25.5787L22.2476 25.592L22.2526 25.603ZM23.4437 27.251L23.6793 26.81L23.4434 27.2508C23.4435 27.2509 23.4436 27.2509 23.4437 27.251ZM22.6089 26.6802C22.609 26.6803 22.6091 26.6804 22.6092 26.6805L22.9765 26.3413L22.6089 26.6802Z" stroke="#894302"/>
<path d="M13.9716 12.5134V12.1962L13.9695 12.1956L13.9691 12.1954L13.6672 12.0996C13.6365 12.1961 13.6539 12.3014 13.7141 12.3831C13.7741 12.4649 13.8698 12.5132 13.9716 12.5134ZM13.9716 12.5134L13.9721 12.1964L15.7176 7.29325L15.4845 7.28415C15.5805 7.24375 15.6842 7.22256 15.7897 7.22266H20.3326C20.4992 7.2225 20.6616 7.2753 20.796 7.37324M13.9716 12.5134H22.1509M22.1509 12.5134C22.2526 12.5132 22.3483 12.4649 22.4085 12.3831M22.1509 12.5134V12.1962L22.1534 12.1954L22.4085 12.3831M22.1509 12.5134L22.1504 12.1964L21.9788 12.2509L21.9788 12.2507M22.4085 12.3831C22.4686 12.3014 22.486 12.1961 22.4554 12.0996M22.4085 12.3831L22.1535 12.1954L22.4554 12.0996M22.4554 12.0996L21.0802 7.76729C21.0299 7.60921 20.9303 7.47119 20.796 7.37324M22.4554 12.0996L22.1534 12.1954M20.796 7.37324L20.5014 7.77721C20.55 7.81265 20.5857 7.86233 20.6037 7.91881C20.6037 7.91884 20.6037 7.91888 20.6037 7.91892L21.9034 12.0134H14.2191L15.5191 7.91858L15.5214 7.91128L15.5811 7.72313L15.6208 7.77756C15.6699 7.74176 15.7289 7.7226 15.7892 7.72266H15.7897L20.3326 7.72266L20.3331 7.72266C20.3938 7.7226 20.4528 7.74185 20.5016 7.77739L20.796 7.37324ZM21.9788 12.2507L22.1504 12.1963L22.1504 12.1932L22.0058 12.0867C21.9712 12.1337 21.961 12.1947 21.9788 12.2507Z" stroke="#894302"/>
<path d="M19.9629 13.8471L19.9652 13.8393C19.9865 13.774 20.0248 13.7213 20.0708 13.6858L20.071 13.6856C20.1182 13.6492 20.1717 13.6318 20.2238 13.6318H24.7219C24.7739 13.6318 24.8275 13.6492 24.8746 13.6856L24.8748 13.6858C24.9214 13.7218 24.9602 13.7754 24.9812 13.8418L24.9829 13.8473L26.2819 18.1878H18.6636L19.9629 13.8471ZM18.4235 18.3742L18.4544 18.3528L18.4235 18.3742Z" stroke="#894302"/>
<path d="M16.2702 13.671L16.2704 13.6711C16.3082 13.7032 16.3466 13.7581 16.3675 13.8351L17.5511 18.1851L17.5509 18.1855L17.5515 18.1878H10.7135L11.898 13.8351C11.898 13.8351 11.898 13.835 11.898 13.835C11.919 13.7578 11.9574 13.703 11.9949 13.6711L11.9951 13.671C12.0313 13.6402 12.0641 13.6318 12.0881 13.6318H16.1772C16.2013 13.6318 16.2341 13.6402 16.2702 13.671Z" stroke="#894302"/>
<path d="M27.7324 10.1897L25.8204 10.8109C25.7484 10.8368 25.71 10.9153 25.7334 10.9882C25.7571 11.061 25.8341 11.1021 25.9077 11.0812L27.8197 10.46C27.8917 10.4339 27.9302 10.3556 27.9065 10.2827C27.883 10.2098 27.8061 10.1687 27.7324 10.1897Z" fill="#894302"/>
<path d="M26.2473 7.33011L24.6211 8.51166V8.51151C24.5576 8.55772 24.5435 8.64666 24.5897 8.71015C24.6359 8.77363 24.7249 8.78772 24.7884 8.74151L26.4146 7.55996C26.4775 7.5136 26.4911 7.42511 26.4452 7.36193C26.3992 7.29874 26.3108 7.2845 26.2473 7.33011V7.33011Z" fill="#894302"/>
<path d="M24.1891 5.23184C24.2352 5.16835 24.2211 5.07941 24.1574 5.03319C24.0938 4.98713 24.0048 5.00122 23.9588 5.06471L22.7771 6.69097C22.731 6.75461 22.7451 6.84355 22.8087 6.88976C22.8724 6.93583 22.9613 6.92174 23.0075 6.8581L24.1891 5.23184Z" fill="#894302"/>
<path d="M21.0808 3.62025L20.4594 5.53196C20.4367 5.6062 20.4777 5.68499 20.5515 5.70878C20.6254 5.73272 20.7048 5.69317 20.73 5.61968L21.3514 3.70798C21.3741 3.63373 21.3331 3.55509 21.2593 3.53115C21.1853 3.50721 21.1059 3.54676 21.0808 3.62025Z" fill="#894302"/>
<path d="M8.098 10.4616L10.01 11.0828H10.0099C10.0844 11.1066 10.1643 11.066 10.1885 10.9916C10.2129 10.9174 10.1727 10.8372 10.0985 10.8125L8.18648 10.1913H8.18664C8.11194 10.1669 8.03163 10.2075 8.00709 10.2822C7.98269 10.3568 8.0233 10.4371 8.098 10.4616H8.098Z" fill="#894302"/>
<path d="M11.2928 8.5115L9.66657 7.32996V7.33011C9.60308 7.2845 9.5146 7.29874 9.46868 7.36193C9.42262 7.42511 9.43626 7.5136 9.49929 7.55996L11.1256 8.74151C11.189 8.78772 11.278 8.77363 11.3242 8.71015C11.3703 8.64666 11.3563 8.55772 11.2928 8.51151L11.2928 8.5115Z" fill="#894302"/>
<path d="M13.1388 6.69201L11.9571 5.06575H11.9572C11.9093 5.00742 11.8245 4.99651 11.7636 5.0409C11.7027 5.0853 11.6869 5.16954 11.7278 5.23288L12.9095 6.85914V6.85899C12.9572 6.91732 13.0422 6.92823 13.1031 6.88384C13.1641 6.83944 13.1797 6.75535 13.1388 6.69201V6.69201Z" fill="#894302"/>
<path d="M14.5667 3.70812L15.188 5.61983C15.2157 5.68968 15.2928 5.72589 15.3642 5.70271C15.4356 5.67952 15.4766 5.60467 15.4578 5.5321L14.8375 3.62023C14.8122 3.5469 14.7328 3.5072 14.659 3.53114C14.5851 3.55508 14.5442 3.63372 14.5668 3.70796L14.5667 3.70812Z" fill="#894302"/>
<path d="M17.7344 3.135V5.1452C17.7382 5.22081 17.8006 5.28005 17.8763 5.28005C17.952 5.28005 18.0144 5.22081 18.0182 5.1452V3.135C18.0144 3.0594 17.952 3 17.8763 3C17.8006 3 17.7382 3.05939 17.7344 3.135Z" fill="#894302"/>
</svg>
