<svg width="42" height="41" viewBox="0 0 42 41" fill="none" xmlns="http://www.w3.org/2000/svg">
<path d="M17.9947 3.00601L33.5639 12.388C34.0057 12.6542 34.5826 12.5167 34.8522 12.0809C35.1216 11.6456 34.9823 11.0775 34.541 10.8116L18.4826 1.13527C18.1831 0.954911 17.8063 0.954911 17.5068 1.13527L1.44847 10.8116C1.00721 11.0775 0.867894 11.6456 1.13721 12.0809C1.40683 12.5167 1.98379 12.6542 2.42553 12.388L17.9947 3.00601Z" fill="#894302"/>
<path d="M15.0646 20.9178L17.6708 25.5126H20.2481L17.4102 21.0495C18.1245 20.9032 18.7085 20.63 19.1621 20.2301C19.6158 19.8203 19.8909 19.2545 19.9874 18.5326H21.5946V17.4498H19.9585C19.8716 16.9523 19.6593 16.5182 19.3214 16.1475H21.5946V15.0646H15.0646V16.1475H16.2084C16.6911 16.1475 17.0675 16.2743 17.3378 16.5279C17.6081 16.7718 17.7866 17.0791 17.8735 17.4498H15.0646V18.5326H17.888C17.7915 18.9424 17.5695 19.2643 17.222 19.4984C16.8745 19.7228 16.4449 19.835 15.9333 19.835H15.0646V20.9178Z" fill="#894302"/>
<path fill-rule="evenodd" clip-rule="evenodd" d="M18.4854 3.90731C18.1845 3.7247 17.805 3.7247 17.5041 3.90731L5.32947 11.2947C5.05236 11.4629 4.88362 11.7604 4.88362 12.0815V30.5499C4.88362 31.0598 5.30295 31.4733 5.82013 31.4733H30.1693C30.6865 31.4733 31.1058 31.0598 31.1058 30.5499V12.0815C31.1058 11.7604 30.9371 11.4629 30.66 11.2947L18.4854 3.90731ZM6.75664 29.6265V12.5977L17.9947 5.77805L29.2328 12.5977V29.6265H6.75664Z" fill="#894302"/>
<path d="M17.9947 3.00601L33.5639 12.388C34.0057 12.6542 34.5826 12.5167 34.8522 12.0809C35.1216 11.6456 34.9823 11.0775 34.541 10.8116L18.4826 1.13527C18.1831 0.954911 17.8063 0.954911 17.5068 1.13527L1.44847 10.8116C1.00721 11.0775 0.867894 11.6456 1.13721 12.0809C1.40683 12.5167 1.98379 12.6542 2.42553 12.388L17.9947 3.00601Z" stroke="#FFB571" stroke-width="0.4"/>
<path d="M15.0646 20.9178L17.6708 25.5126H20.2481L17.4102 21.0495C18.1245 20.9032 18.7085 20.63 19.1621 20.2301C19.6158 19.8203 19.8909 19.2545 19.9874 18.5326H21.5946V17.4498H19.9585C19.8716 16.9523 19.6593 16.5182 19.3214 16.1475H21.5946V15.0646H15.0646V16.1475H16.2084C16.6911 16.1475 17.0675 16.2743 17.3378 16.5279C17.6081 16.7718 17.7866 17.0791 17.8735 17.4498H15.0646V18.5326H17.888C17.7915 18.9424 17.5695 19.2643 17.222 19.4984C16.8745 19.7228 16.4449 19.835 15.9333 19.835H15.0646V20.9178Z" stroke="#FFB571" stroke-width="0.4"/>
<path fill-rule="evenodd" clip-rule="evenodd" d="M18.4854 3.90731C18.1845 3.7247 17.805 3.7247 17.5041 3.90731L5.32947 11.2947C5.05236 11.4629 4.88362 11.7604 4.88362 12.0815V30.5499C4.88362 31.0598 5.30295 31.4733 5.82013 31.4733H30.1693C30.6865 31.4733 31.1058 31.0598 31.1058 30.5499V12.0815C31.1058 11.7604 30.9371 11.4629 30.66 11.2947L18.4854 3.90731ZM6.75664 29.6265V12.5977L17.9947 5.77805L29.2328 12.5977V29.6265H6.75664Z" stroke="#FFB571" stroke-width="0.4"/>
</svg>
