<svg width="41" height="41" viewBox="0 0 41 41" fill="none" xmlns="http://www.w3.org/2000/svg">
<path d="M9.11018 6.20229C8.63737 5.53699 9.11305 4.61539 9.92924 4.61539H22.898C23.7142 4.61539 24.1898 5.53699 23.717 6.20229L18.713 13.2436H14.1142L9.11018 6.20229Z" stroke="#894302" stroke-width="1.3"/>
<path d="M20.028 20.6534V21.1534H20.4172L20.5127 20.7762L20.028 20.6534ZM18.2674 20.6534V20.1534H17.3705L17.8421 20.9163L18.2674 20.6534ZM20.4399 19.0276L20.9246 19.1504L21.0824 18.5276H20.4399V19.0276ZM12.8321 19.0276V18.5276H12.4382L12.346 18.9106L12.8321 19.0276ZM12.396 20.84L11.9099 20.723L11.7614 21.34H12.396V20.84ZM16.7087 22.2171V22.7171H17.3726L17.1893 22.079L16.7087 22.2171ZM12.8079 22.2171V21.7171H12.4193L12.3234 22.0937L12.8079 22.2171ZM12.396 23.8341L11.9115 23.7107L11.7527 24.3341H12.396V23.8341ZM16.741 23.8341L17.2246 23.9613L17.3896 23.3341H16.741V23.8341ZM16.0303 24.9269L16.3375 25.3214L16.3387 25.3205L16.0303 24.9269ZM12.5575 25.3356V24.8356H12.0546L12.0575 25.3385L12.5575 25.3356ZM12.5656 26.6949L12.0656 26.6978L12.0666 26.8682L12.1714 27.0025L12.5656 26.6949ZM16.6764 31.9634L16.2822 32.271L16.4323 32.4634H16.6764V31.9634ZM18.9943 31.9634V32.4634H19.4943V31.9634H18.9943ZM18.9943 31.8479H19.4943V31.6764L19.3891 31.541L18.9943 31.8479ZM15.2308 27.0058L15.1844 26.508L14.2762 26.5925L14.836 27.3127L15.2308 27.0058ZM17.7425 26.0818L18.0707 26.4591L18.0728 26.4572L17.7425 26.0818ZM18.8085 23.8341V23.3341H18.3655L18.3122 23.7739L18.8085 23.8341ZM20.028 23.8341V24.3341H20.4185L20.5131 23.9552L20.028 23.8341ZM20.4319 22.2171L20.917 22.3382L21.0721 21.7171H20.4319V22.2171ZM18.8005 22.2171L18.305 22.284L18.3634 22.7171H18.8005V22.2171ZM5.41992 19.7049C5.41992 17.2063 7.44544 15.1807 9.94405 15.1807V14.1807C6.89316 14.1807 4.41992 16.654 4.41992 19.7049H5.41992ZM5.41992 35.2464V19.7049H4.41992V35.2464H5.41992ZM5.92475 35.7512C5.64594 35.7512 5.41992 35.5252 5.41992 35.2464H4.41992C4.41992 36.0775 5.09366 36.7512 5.92475 36.7512V35.7512ZM26.9092 35.7512H5.92475V36.7512H26.9092V35.7512ZM27.4141 35.2464C27.4141 35.5252 27.1881 35.7512 26.9092 35.7512V36.7512C27.7403 36.7512 28.4141 36.0775 28.4141 35.2464H27.4141ZM27.4141 19.7049V35.2464H28.4141V19.7049H27.4141ZM22.8899 15.1807C25.3885 15.1807 27.4141 17.2063 27.4141 19.7049H28.4141C28.4141 16.654 25.9408 14.1807 22.8899 14.1807V15.1807ZM9.94405 15.1807H22.8899V14.1807H9.94405V15.1807ZM20.028 20.1534H18.2674V21.1534H20.028V20.1534ZM19.9552 18.9048L19.5434 20.5306L20.5127 20.7762L20.9246 19.1504L19.9552 18.9048ZM12.8321 19.5276H20.4399V18.5276H12.8321V19.5276ZM12.8821 20.957L13.3183 19.1445L12.346 18.9106L11.9099 20.723L12.8821 20.957ZM14.5685 20.34H12.396V21.34H14.5685V20.34ZM17.1893 22.079C17.0284 21.5192 16.7179 21.0672 16.2464 20.7638C15.7842 20.4664 15.2115 20.34 14.5685 20.34V21.34C15.0885 21.34 15.454 21.4431 15.7052 21.6048C15.9471 21.7604 16.1252 21.9969 16.2282 22.3552L17.1893 22.079ZM12.8079 22.7171H16.7087V21.7171H12.8079V22.7171ZM12.8805 23.9575L13.2924 22.3405L12.3234 22.0937L11.9115 23.7107L12.8805 23.9575ZM16.741 23.3341H12.396V24.3341H16.741V23.3341ZM16.3387 25.3205C16.7827 24.9726 17.0793 24.5135 17.2246 23.9613L16.2575 23.7068C16.1659 24.055 15.9886 24.3244 15.722 24.5333L16.3387 25.3205ZM14.6008 25.8356C15.2755 25.8356 15.8728 25.6831 16.3375 25.3214L15.7232 24.5323C15.4878 24.7155 15.1322 24.8356 14.6008 24.8356V25.8356ZM12.5575 25.8356H14.6008V24.8356H12.5575V25.8356ZM13.0656 26.6919L13.0575 25.3326L12.0575 25.3385L12.0656 26.6978L13.0656 26.6919ZM17.0706 31.6558L12.9598 26.3873L12.1714 27.0025L16.2822 32.271L17.0706 31.6558ZM18.9943 31.4634H16.6764V32.4634H18.9943V31.4634ZM18.4943 31.8479V31.9634H19.4943V31.8479H18.4943ZM14.836 27.3127L18.5995 32.1547L19.3891 31.541L15.6255 26.699L14.836 27.3127ZM17.4143 25.7046C16.9262 26.1293 16.2015 26.4134 15.1844 26.508L15.2771 27.5037C16.4245 27.3969 17.3742 27.065 18.0707 26.4591L17.4143 25.7046ZM18.3122 23.7739C18.2047 24.6607 17.891 25.2851 17.4121 25.7065L18.0728 26.4572C18.7785 25.8362 19.1755 24.962 19.3049 23.8942L18.3122 23.7739ZM20.028 23.3341H18.8085V24.3341H20.028V23.3341ZM19.9468 22.096L19.5429 23.7129L20.5131 23.9552L20.917 22.3382L19.9468 22.096ZM18.8005 22.7171H20.4319V21.7171H18.8005V22.7171ZM17.8421 20.9163C18.0745 21.2923 18.2321 21.7445 18.305 22.284L19.296 22.1502C19.2073 21.4932 19.0095 20.903 18.6927 20.3905L17.8421 20.9163Z" fill="#894302"/>
<ellipse cx="28.9288" cy="38.0975" rx="7.15146" ry="2.47162" fill="#FFB571"/>
<path d="M36.0803 36.3339V38.0993L34.5747 38.4524L31.5635 39.1586H28.5524H24.7885L21.7773 38.0993V35.9808H26.6704H32.3163L36.0803 36.3339Z" fill="#FFB571"/>
<ellipse cx="28.9288" cy="35.9795" rx="7.15146" ry="2.47162" fill="#894302"/>
<ellipse cx="28.9288" cy="34.4353" rx="7.15146" ry="2.47162" fill="#FFB571"/>
<path d="M36.0803 32.6685V34.434L34.5747 34.7871L31.5635 35.4932H28.5524H24.7885L21.7773 34.434V32.3154H26.6704H32.3163L36.0803 32.6685Z" fill="#FFB571"/>
<ellipse cx="28.9288" cy="33.3162" rx="7.15146" ry="2.47162" fill="#894302"/>
<path fill-rule="evenodd" clip-rule="evenodd" d="M28.9327 34.2501C32.8823 34.2501 36.0842 33.1435 36.0842 31.7785C36.0842 31.7776 36.0842 31.7767 36.0842 31.7759V30.0104L32.8252 29.7047C31.7051 29.453 30.3683 29.3069 28.9327 29.3069C27.5897 29.3069 26.3332 29.4348 25.2596 29.6573H21.7812V31.7759L21.7813 31.7759C21.7813 31.7767 21.7812 31.7776 21.7812 31.7785C21.7812 33.1435 24.9831 34.2501 28.9327 34.2501Z" fill="#FFB571"/>
<path d="M35.4631 30.6585C35.4631 30.7359 35.419 30.901 35.1306 31.1366C34.847 31.3684 34.3986 31.6049 33.7893 31.8155C32.5767 32.2346 30.861 32.5051 28.9366 32.5051C27.0122 32.5051 25.2965 32.2346 24.0839 31.8155C23.4746 31.6049 23.0263 31.3684 22.7426 31.1366C22.4543 30.901 22.4102 30.7359 22.4102 30.6585C22.4102 30.5812 22.4543 30.4161 22.7426 30.1804C23.0263 29.9487 23.4746 29.7121 24.0839 29.5015C25.2965 29.0825 27.0122 28.8119 28.9366 28.8119C30.861 28.8119 32.5767 29.0825 33.7893 29.5015C34.3986 29.7121 34.847 29.9487 35.1306 30.1804C35.419 30.4161 35.4631 30.5812 35.4631 30.6585Z" stroke="#894302" stroke-width="1.25"/>
</svg>
