<svg width="30" height="30" viewBox="0 0 30 30" fill="none" xmlns="http://www.w3.org/2000/svg">
<path d="M29.9969 20.4312C29.9649 19.8706 29.6775 19.356 29.2173 19.0348C28.757 18.7137 28.175 18.6219 27.6384 18.7857L20.8861 20.8414C20.7608 20.2337 20.3484 19.7247 19.78 19.4767L15.3797 17.5629C13.8795 16.9121 12.1976 16.8133 10.6317 17.2839L8.5595 17.908L8.53189 17.7481C8.46686 17.3722 8.25522 17.0376 7.94365 16.8179C7.63227 16.5981 7.24625 16.5111 6.87065 16.5762L3.34864 17.1867L0.381843 17.7017C0.14282 17.7431 -0.0173673 17.9706 0.0240367 18.2098C0.0654427 18.449 0.292755 18.6093 0.531574 18.5679L3.06528 18.1278L4.83525 28.3518L0.381784 29.1249C0.14903 29.1555 -0.0182665 29.3639 0.00160028 29.5979C0.0214671 29.8318 0.221596 30.0087 0.456021 29.9997C0.481324 29.9997 0.506628 29.9974 0.531516 29.9932L8.94025 28.5347C9.31583 28.4692 9.6498 28.2572 9.86934 27.9456C10.0889 27.6338 10.1759 27.2477 10.1113 26.8719L10.0095 26.2859L10.1341 26.2566C10.4037 26.1946 10.6837 26.1929 10.9538 26.2517L18.7929 27.981C19.0589 28.0387 19.3306 28.0672 19.6029 28.0659C20.3939 28.0657 21.1652 27.8175 21.808 27.3563L29.2333 22.024C29.7452 21.6605 30.0339 21.0584 29.9969 20.4312ZM8.79007 27.6659L5.70073 28.202L3.93055 17.978L7.02053 17.4418C7.32417 17.3901 7.61214 17.5942 7.66461 17.8978L9.0699 26.002C9.07011 26.0045 9.07011 26.007 9.0699 26.0095L9.24556 27.019C9.29784 27.3235 9.09413 27.6127 8.79007 27.6659ZM28.7217 21.3125L21.2964 26.6448C20.6263 27.1253 19.7842 27.2981 18.9793 27.1211L11.1423 25.389C10.745 25.3021 10.3335 25.3046 9.93738 25.3959L9.86126 25.4141L8.71004 18.7805L10.884 18.1255C12.2513 17.7147 13.7195 17.8013 15.029 18.3699L19.43 20.2837C19.6355 20.3737 19.806 20.528 19.9158 20.7238C20.0253 20.9197 20.068 21.1459 20.0373 21.3682C20.0322 21.4044 20.0256 21.4402 20.0168 21.4755C19.9524 21.7363 19.7882 21.9613 19.5596 22.1021C19.3311 22.2429 19.0563 22.2883 18.7947 22.2285L16.2951 21.6641C16.0583 21.6107 15.8233 21.7595 15.7698 21.9964C15.7164 22.2333 15.8651 22.4685 16.1018 22.5219L18.6009 23.0857C19.0716 23.1928 19.5656 23.117 19.9823 22.8732C20.3991 22.6294 20.7076 22.2362 20.8454 21.7731L27.8889 19.6285C27.9793 19.6011 28.0732 19.587 28.1677 19.5868C28.4377 19.5879 28.6947 19.7036 28.8745 19.9053C29.0544 20.1069 29.1401 20.3754 29.1104 20.6441C29.0809 20.9128 28.9387 21.1562 28.7191 21.3138L28.7217 21.3125ZM14.7185 9.71642C14.8563 10.226 15.2016 10.6542 15.67 10.8971C15.84 10.9855 15.9812 11.1206 16.0767 11.2868C16.1723 11.453 16.2183 11.6432 16.2091 11.8347C16.1836 12.3629 16.3823 12.8775 16.756 13.2515C17.1299 13.6254 17.6441 13.8241 18.1719 13.7983C18.3626 13.7899 18.5519 13.8362 18.7173 13.9318C18.8828 14.0272 19.0176 14.1679 19.1059 14.3374C19.348 14.8072 19.7769 15.1532 20.2872 15.2902C20.7974 15.4272 21.3418 15.3427 21.7864 15.0575C21.9474 14.9545 22.1346 14.8997 22.3257 14.8997C22.5168 14.8997 22.704 14.9545 22.865 15.0575C23.3098 15.3431 23.8545 15.4279 24.365 15.2908C24.8755 15.1538 25.3046 14.8076 25.5468 14.3374C25.6348 14.1677 25.7695 14.0268 25.9351 13.9312C26.1005 13.8355 26.2898 13.7893 26.4807 13.7977C27.0081 13.8219 27.5211 13.6229 27.8943 13.2494C28.2676 12.8758 28.4665 12.3625 28.4422 11.8347C28.433 11.6432 28.479 11.453 28.5746 11.2868C28.6702 11.1206 28.8115 10.9855 28.9815 10.8971C29.4506 10.6542 29.7959 10.2247 29.9324 9.71433C30.0692 9.20371 29.9847 8.65919 29.6999 8.21404C29.597 8.0529 29.5424 7.8656 29.5424 7.67434C29.5424 7.48307 29.597 7.29576 29.6999 7.13463C29.9847 6.68972 30.0692 6.14517 29.9324 5.63477C29.7957 5.12415 29.4506 4.69492 28.9815 4.45218C28.8119 4.36408 28.671 4.2293 28.5754 4.06356C28.4799 3.89803 28.4336 3.70863 28.4422 3.51759C28.4667 2.98959 28.2678 2.47562 27.8943 2.10184C27.5206 1.72807 27.0073 1.52886 26.4794 1.55335C26.2891 1.56193 26.1001 1.51589 25.9349 1.42067C25.7696 1.32545 25.635 1.18523 25.5467 1.01614C25.3041 0.546321 24.8748 0.200581 24.3646 0.0639672C23.8541 -0.0728984 23.3096 0.0120673 22.8649 0.297727C22.7037 0.400482 22.5168 0.455101 22.3256 0.455101C22.1347 0.455101 21.9475 0.400482 21.7863 0.297727C21.3417 0.0124879 20.7978 -0.0722663 20.2876 0.064594C19.7775 0.201251 19.3484 0.546552 19.1058 1.01618C19.0178 1.1859 18.8831 1.32674 18.7177 1.42237C18.5521 1.51802 18.3628 1.56426 18.1719 1.55568C17.6443 1.5312 17.1305 1.73022 16.757 2.10396C16.3835 2.47773 16.1846 2.9919 16.2091 3.51992C16.2177 3.71099 16.1715 3.90038 16.0759 4.06611C15.9803 4.23164 15.8396 4.36642 15.67 4.45452C15.2005 4.69707 14.8552 5.12629 14.7185 5.6369C14.5818 6.14752 14.6662 6.69204 14.9515 7.13697C15.0544 7.29811 15.1092 7.48542 15.1092 7.67668C15.1092 7.86796 15.0544 8.05526 14.9515 8.21638C14.6673 8.66172 14.5828 9.20581 14.7185 9.71642ZM15.6912 6.66291C15.5393 6.42601 15.4942 6.13617 15.5669 5.86434C15.6397 5.5927 15.8235 5.36418 16.0734 5.23506C16.3923 5.06931 16.6571 4.81568 16.8365 4.50425C17.0161 4.19265 17.1027 3.83624 17.0864 3.47713C17.0732 3.19608 17.1791 2.92237 17.3779 2.72356C17.5768 2.52475 17.8501 2.41886 18.1309 2.43225C18.49 2.44878 18.8461 2.36214 19.1575 2.18238C19.4689 2.00261 19.7222 1.73725 19.8876 1.41787C20.0168 1.16821 20.2452 0.984471 20.5166 0.911643C20.7883 0.838814 21.0777 0.883809 21.3146 1.03532C21.617 1.22869 21.9685 1.33144 22.3276 1.33144C22.6865 1.33144 23.038 1.22869 23.3406 1.03532C23.5773 0.883811 23.8667 0.838814 24.1384 0.911643C24.4098 0.984471 24.6382 1.16821 24.7674 1.41787C24.9328 1.73722 25.1863 2.00237 25.4975 2.18216C25.8088 2.36193 26.165 2.44878 26.524 2.43225C26.8047 2.4199 27.0774 2.52642 27.2756 2.72544C27.4737 2.92467 27.5788 3.19819 27.5653 3.4788C27.5487 3.83791 27.6355 4.19428 27.8149 4.50592C27.9944 4.81732 28.2593 5.07097 28.5782 5.23672C28.8279 5.36585 29.012 5.59437 29.0847 5.86622C29.1575 6.13807 29.1123 6.42789 28.9605 6.66479C28.7673 6.96761 28.6646 7.31942 28.6646 7.67874C28.6646 8.03806 28.7673 8.38983 28.9605 8.69268C29.1123 8.92958 29.1573 9.21942 29.0845 9.49104C29.0118 9.76268 28.8279 9.9912 28.5782 10.1201C28.2593 10.2859 27.9944 10.5395 27.8149 10.8509C27.6355 11.1625 27.5487 11.5189 27.5653 11.878C27.5782 12.1591 27.4722 12.4326 27.2735 12.6316C27.0747 12.8304 26.8013 12.9363 26.5205 12.9233C26.1617 12.9068 25.8053 12.9934 25.4941 13.173C25.1828 13.3528 24.9293 13.6179 24.7639 13.9371C24.6348 14.1872 24.4065 14.3711 24.135 14.4439C23.8634 14.5168 23.5738 14.4718 23.3371 14.3198C23.0345 14.1265 22.6829 14.0239 22.3241 14.0239C21.965 14.0239 21.6137 14.1265 21.3111 14.3198C21.0744 14.4718 20.7847 14.5168 20.5131 14.4439C20.2414 14.3711 20.0131 14.1872 19.8841 13.9371C19.7186 13.6179 19.4652 13.3528 19.154 13.1732C18.8426 12.9934 18.4865 12.9068 18.1274 12.9233C17.8466 12.9363 17.5732 12.8304 17.3746 12.6316C17.1757 12.4326 17.0699 12.1591 17.0829 11.878C17.0992 11.5189 17.0126 11.1626 16.8332 10.8509C16.6536 10.5395 16.3888 10.2859 16.0699 10.1201C15.8202 9.9912 15.6362 9.76267 15.5634 9.49105C15.4906 9.21941 15.5358 8.92959 15.6876 8.69269C15.8817 8.39008 15.9852 8.03806 15.9858 7.67831C15.9864 7.31878 15.8844 6.96636 15.6912 6.66291ZM23.2171 8.56961C22.8453 8.94254 22.6363 9.44796 22.6368 9.9747C22.6372 10.5014 22.8465 11.0066 23.2187 11.3789C23.591 11.7512 24.096 11.9605 24.6224 11.9605C25.1487 11.9605 25.6536 11.7512 26.026 11.3789C26.3982 11.0066 26.6076 10.5014 26.608 9.9747C26.6082 9.44796 26.3995 8.94254 26.0277 8.56961C25.6544 8.19753 25.1492 7.98866 24.6224 7.98866C24.0956 7.98866 23.5902 8.19751 23.2171 8.56961ZM25.7278 9.97593C25.7278 10.3204 25.5678 10.645 25.2949 10.8544C25.022 11.0641 24.6671 11.1347 24.3348 11.0457C24.0025 10.9566 23.7304 10.718 23.5987 10.3999C23.4672 10.0818 23.4906 9.72056 23.6627 9.42237C23.8346 9.12416 24.1353 8.92304 24.4764 8.87784C24.8174 8.83285 25.16 8.9492 25.4034 9.19259C25.6114 9.39956 25.7283 9.68124 25.7277 9.97488L25.7278 9.97593ZM20.03 7.36672C20.6469 7.36567 21.2283 7.07792 21.6031 6.58759C21.9778 6.09726 22.1037 5.46044 21.9433 4.86443C21.7829 4.26842 21.3546 3.781 20.7844 3.54539C20.2143 3.30975 19.5671 3.35285 19.0332 3.66195C18.4993 3.97126 18.1394 4.51121 18.0595 5.12329C17.9794 5.73543 18.1883 6.34987 18.6248 6.78596C18.9974 7.15868 19.5033 7.36735 20.0301 7.36542L20.03 7.36672ZM19.2473 4.59678C19.4548 4.38918 19.7362 4.27261 20.0298 4.27261C20.3232 4.27261 20.6047 4.38918 20.8124 4.59699C21.0198 4.80459 21.1365 5.08627 21.1365 5.38008C21.1365 5.67369 21.0198 5.95536 20.8124 6.16317C20.6047 6.37077 20.3232 6.48755 20.0298 6.48755C19.7362 6.48755 19.4548 6.37077 19.2473 6.16317C19.0382 5.9562 18.9205 5.67431 18.9205 5.38008C18.9205 5.08563 19.0382 4.80373 19.2473 4.59678ZM19.0476 10.956C19.1298 11.0387 19.2415 11.0849 19.3579 11.0849C19.4744 11.0849 19.5861 11.0387 19.6683 10.956L25.6058 5.01733C25.7779 4.84573 25.7786 4.56676 25.6071 4.39454C25.4354 4.22209 25.1568 4.22167 24.9845 4.39328L19.048 10.3373C18.878 10.5085 18.8776 10.7848 19.0476 10.956Z" fill="#F2A053"/>
</svg>
