<svg width="17" height="21" viewBox="0 0 17 21" fill="none" xmlns="http://www.w3.org/2000/svg">
<path d="M8.61646 16.3448L6.93371 13.6853V13.0586H7.49462C7.82494 13.0586 8.10228 12.9936 8.32665 12.8638C8.55102 12.7283 8.69436 12.5419 8.75669 12.3048H6.93371V11.678H8.74734C8.69125 11.4635 8.57595 11.2856 8.40144 11.1445C8.22693 10.9976 7.98387 10.9242 7.67225 10.9242H6.93371V10.2975H11.1499V10.9242H9.6822C9.90034 11.1388 10.0374 11.3901 10.0935 11.678H11.1499V12.3048H10.1122C10.0499 12.7226 9.87229 13.0501 9.57937 13.2872C9.28644 13.5188 8.90938 13.6768 8.44818 13.7615L10.2805 16.3448H8.61646Z" fill="#CD6200"/>
<path d="M9.08287 6.86497C9.00454 6.93988 8.89588 6.98296 8.78512 6.98296C8.67431 6.98296 8.5657 6.93988 8.48736 6.86497C8.40903 6.79007 8.36396 6.68617 8.36396 6.58026C8.36396 6.47435 8.40903 6.37045 8.48736 6.29555C8.5657 6.22065 8.67435 6.17756 8.78512 6.17756C8.89588 6.17756 9.00454 6.22065 9.08287 6.29555C9.16121 6.37045 9.20627 6.47435 9.20627 6.58026C9.20627 6.68617 9.16121 6.79007 9.08287 6.86497Z" fill="#CD6200"/>
<path fill-rule="evenodd" clip-rule="evenodd" d="M15.9675 11.6522L12.748 6.82637C13.2042 6.59715 13.5162 6.13976 13.5162 5.61375C13.5162 5.038 13.1424 4.54445 12.6148 4.34241L13.5901 1.08197C13.6322 0.941303 13.5912 0.789926 13.4831 0.686472C12.8343 0.0661478 11.7787 0.0661478 11.1299 0.686472C10.9747 0.834868 10.7684 0.916577 10.5489 0.916577C10.3294 0.916577 10.1231 0.834868 9.96695 0.685506L9.96489 0.683532C9.31841 0.0653021 8.26464 0.0635705 7.61556 0.679868L7.60347 0.691385C7.2831 0.995547 6.76276 0.994661 6.44356 0.689412L6.44049 0.686472C5.7917 0.0661478 4.73612 0.0661478 4.08733 0.686472C3.97909 0.790007 3.93811 0.941504 3.98027 1.08225L4.95769 4.34165C4.42897 4.54316 4.05418 5.03724 4.05418 5.61379C4.05418 6.1398 4.36617 6.59719 4.82237 6.82641L1.60285 11.6522C0.357324 13.5191 0.2784 15.793 1.39172 17.7348C2.50505 19.6766 4.55237 20.8359 6.86834 20.8359H10.702C13.0179 20.8359 15.0652 19.6766 16.1786 17.7348C17.2919 15.793 17.213 13.5191 15.9675 11.6522ZM5.84485 1.25598L5.84793 1.25891C6.49448 1.8771 7.54821 1.8788 8.19726 1.26258L8.20934 1.25106C8.52967 0.9469 9.05001 0.947786 9.37022 1.25396L9.37228 1.25593C10.0211 1.87626 11.0767 1.87626 11.7254 1.25593C11.9894 1.00352 12.3898 0.959102 12.7018 1.12268L11.768 4.24456H5.80488L4.86866 1.12264C5.18065 0.959102 5.58091 1.0036 5.84485 1.25598ZM15.44 17.3477C14.4768 19.0276 12.7056 20.0306 10.702 20.0306H6.86838C4.86478 20.0306 3.09357 19.0276 2.13039 17.3477C1.16721 15.6678 1.23548 13.7006 2.313 12.0854L5.71699 6.98294H6.88999C7.12259 6.98294 7.31115 6.80265 7.31115 6.58024C7.31115 6.35782 7.12259 6.17753 6.88999 6.17753H5.48611C5.16098 6.17753 4.89649 5.92464 4.89649 5.61375C4.89649 5.30286 5.16098 5.04996 5.48611 5.04996H12.0842C12.4094 5.04996 12.6738 5.30286 12.6738 5.61375C12.6738 5.92464 12.4094 6.17753 12.0842 6.17753H10.6804C10.4478 6.17753 10.2592 6.35782 10.2592 6.58024C10.2592 6.80265 10.4478 6.98294 10.6804 6.98294H11.8533L15.2574 12.0854C16.3349 13.7005 16.4032 15.6677 15.44 17.3477Z" fill="#CD6200"/>
</svg>
