<svg width="23" height="24" viewBox="0 0 23 24" fill="none" xmlns="http://www.w3.org/2000/svg">
<path d="M18.6 19.3333V20.4465C18.6 21.1237 18.3261 21.7732 17.8385 22.2521C17.3509 22.731 16.6896 23 16 23H3.60006C2.9105 23 2.24918 22.731 1.76158 22.2521C1.27399 21.7732 1.00006 21.1237 1.00006 20.4465V1.79977C0.997607 1.60872 1.06503 1.42315 1.19006 1.27679C1.30607 1.14277 1.46452 1.05086 1.64002 1.01578C1.81553 0.980704 1.99795 1.00448 2.15806 1.08331L3.40006 1.69272L4.64355 1.08331C4.75482 1.02879 4.87746 1.00041 5.0018 1.00041C5.12614 1.00041 5.24878 1.02879 5.36005 1.08331L6.60004 1.6937L7.86004 1.08233C7.97161 1.02792 8.09458 0.999856 8.21914 1.00037C8.34371 1.00088 8.46643 1.02995 8.57754 1.08527L9.80003 1.69125L11.032 1.0838C11.1434 1.02886 11.2664 1.00024 11.391 1.00024C11.5157 1.00024 11.6386 1.02886 11.75 1.0838L12.989 1.69321L14.2445 1.0838C14.3556 1.02926 14.4781 1.00086 14.6023 1.00086C14.7265 1.00086 14.8489 1.02926 14.96 1.0838L16.2 1.69272L17.4295 1.08969C17.6025 1.00206 17.8017 0.978196 17.991 1.02242C18.1649 1.0644 18.3194 1.16246 18.4298 1.3009C18.5402 1.43935 18.6001 1.61017 18.6 1.78602V3.2V8.7" stroke="#894302" stroke-width="1.5" stroke-linecap="round"/>
<path d="M4.62305 6.39575H14.976" stroke="#894302" stroke-width="1.5" stroke-linecap="round"/>
<path d="M4.62305 9.48853L9.79952 9.48853" stroke="#894302" stroke-width="1.5" stroke-linecap="round"/>
<path d="M21.8493 10.5356C20.8691 9.55542 19.6929 10.7316 19.6929 10.7316L14.0596 16.3649C13.8977 16.5269 13.7845 16.7311 13.7329 16.9543L13.2237 19.1613L15.4306 18.652C15.6538 18.6005 15.858 18.4873 16.02 18.3253L21.6533 12.692C21.6533 12.692 22.8295 11.5158 21.8493 10.5356Z" stroke="#894302" stroke-width="1.5" stroke-linecap="round" stroke-linejoin="round"/>
</svg>
