<svg width="41" height="40" viewBox="0 0 41 40" fill="none" xmlns="http://www.w3.org/2000/svg">
<path d="M40.0555 16.5111L39.1016 15.5637C38.0506 14.5136 36.3472 14.5136 35.2962 15.5637L29.5417 21.3216V20.5814C29.5417 19.4666 28.638 18.5629 27.5232 18.5629H10.028C9.84939 18.5629 9.67844 18.6337 9.55215 18.76L7.33622 20.976V19.9087C7.33622 19.5369 7.03497 19.2356 6.66349 19.2356H1.28046C0.90867 19.2356 0.607422 19.5369 0.607422 19.9087V33.3666C0.607422 33.738 0.90867 34.0393 1.28046 34.0393H6.66349C7.03497 34.0393 7.33653 33.738 7.33653 33.3666V32.2993L10.3065 29.329H28.869C29.0473 29.329 29.2186 29.2581 29.3446 29.1318L40.0571 18.4194C40.5825 17.892 40.5825 17.0388 40.0571 16.5111H40.0555ZM5.99046 32.6935H1.95318V20.5814H5.99046V32.6935ZM28.5902 27.9832H10.028C9.84939 27.9832 9.67844 28.0544 9.55215 28.1804L7.33622 30.3963V22.8786L10.3065 19.9087H27.5232C27.8947 19.9087 28.196 20.2099 28.196 20.5814V22.6002H19.4484V23.9459H28.869C29.2405 23.9459 29.5417 23.6447 29.5417 23.2729L36.2483 16.5152C36.7741 15.9897 37.6258 15.9897 38.1513 16.5152L39.1056 17.4666L28.5902 27.9832Z" fill="#894302"/>
<path d="M19.4908 17.3807C24.1659 17.3807 27.9562 13.5904 27.9562 8.91534C27.9562 4.24024 24.1659 0.449951 19.4908 0.449951C14.8157 0.449951 11.0254 4.24024 11.0254 8.91534C11.031 13.5883 14.8178 17.3747 19.4908 17.3807ZM19.4908 2.3311C23.1269 2.3311 26.075 5.27877 26.075 8.91534C26.075 12.5515 23.1269 15.4991 19.4908 15.4991C15.8546 15.4991 12.9065 12.5515 12.9065 8.91534C12.9108 5.28049 15.8564 2.33541 19.4908 2.3311Z" fill="#894302" stroke="#FFB571" stroke-width="0.2"/>
<path d="M19.0683 12.7889L17.3086 9.83199V9.13513H17.8952C18.2406 9.13513 18.5306 9.06293 18.7652 8.91854C18.9999 8.76787 19.1498 8.56069 19.2149 8.29702H17.3086V7.60016H19.2052C19.1465 7.36159 19.0259 7.16384 18.8434 7.00689C18.661 6.84366 18.4068 6.76204 18.0809 6.76204H17.3086V6.06519H21.7176V6.76204H20.1828C20.4109 7.00061 20.5543 7.27998 20.6129 7.60016H21.7176V8.29702H20.6325C20.5673 8.76159 20.3815 9.12571 20.0752 9.38939C19.7689 9.64679 19.3746 9.82257 18.8923 9.91674L20.8084 12.7889H19.0683Z" fill="#894302"/>
</svg>
