<svg width="14" height="11" viewBox="0 0 14 11" fill="none" xmlns="http://www.w3.org/2000/svg">
<path fill-rule="evenodd" clip-rule="evenodd" d="M8.51191 9.58165C8.28085 9.85122 8.31207 10.2571 8.58164 10.4881C8.8512 10.7192 9.25704 10.6879 9.4881 10.4184L13.3452 5.91838C13.5516 5.67764 13.5516 5.32239 13.3452 5.08165L9.4881 0.581649C9.25704 0.312082 8.85121 0.280863 8.58164 0.511921C8.31207 0.742978 8.28085 1.14881 8.51191 1.41838L11.4592 4.85688L0.642859 4.85688C0.287818 4.85688 9.61334e-07 5.14469 8.99257e-07 5.49973C8.37179e-07 5.85478 0.287818 6.14259 0.642858 6.14259L11.4597 6.14259L8.51191 9.58165Z" fill="#FCFCFC"/>
</svg>
