<svg width="30" height="30" viewBox="0 0 30 30" fill="none" xmlns="http://www.w3.org/2000/svg">
<path d="M24.0006 2.26319V2.58379L16.3656 0.15211C15.4547 -0.139218 14.4625 -0.00796009 13.6569 0.51053L10.4973 2.53859C9.71245 3.03974 9.18118 3.85878 9.0401 4.7848H2.00001C1.72389 4.7848 1.5 5.01061 1.5 5.2891V16.3838C1.5 16.6623 1.72389 16.8881 2.00001 16.8881H23.0003C23.2764 16.8881 23.5003 16.6623 23.5003 16.3838V10.9979C23.5675 10.9468 23.6335 10.8934 23.6978 10.8365H24.0003V11.8451C24.0003 12.1236 24.2242 12.3494 24.5003 12.3494H30.0004V11.3408H25.0003V2.76759H30.0004V1.75897H24.5003C24.2242 1.75897 24.0003 1.98479 24.0003 2.26328L24.0006 2.26319ZM16.1216 13.3579C16.3203 13.3579 16.5183 13.3352 16.7118 13.2902C16.0511 14.0021 15.6361 14.9102 15.5287 15.8795H13.0004V5.79335H13.379C13.8091 5.79335 14.2214 5.96558 14.5254 6.27221C14.8294 6.57907 15.0004 6.9949 15.0001 7.42872C15.0001 7.86233 14.8294 8.27814 14.5254 8.58499L14.268 8.84457V8.84435C13.7762 9.34033 13.5001 10.0128 13.5001 10.7139C13.5001 11.4152 13.7762 12.0877 14.268 12.5835C14.7595 13.0795 15.4263 13.358 16.1216 13.358L16.1216 13.3579ZM19.5005 11.8736C19.131 11.915 18.7681 12.0026 18.4203 12.1345L19.5005 11.0451V11.8736ZM19.5005 12.8901V15.8795H16.5368C16.6457 15.1257 16.9931 14.4277 17.5272 13.8893C18.0612 13.3505 18.7531 13.0002 19.5005 12.8903V12.8901ZM12.0004 15.8795H10.0003V5.79334H12.0004V15.8795ZM9.00032 15.8795H6.47195C6.35699 14.8569 5.90163 13.9041 5.18022 13.1765C4.45881 12.4489 3.51414 11.9896 2.5003 11.8737V9.79926C3.51414 9.68331 4.45878 9.22403 5.18022 8.49642C5.90166 7.7688 6.35703 6.81601 6.47195 5.79345H9.00032V15.8795ZM5.46388 5.79334C5.35495 6.54709 5.00762 7.24505 4.47347 7.78353C3.93953 8.32228 3.24756 8.67261 2.50024 8.78246V5.79334H5.46388ZM2.50024 12.8905C3.24756 13.0004 3.93957 13.3507 4.47347 13.8894C5.00763 14.428 5.35496 15.1259 5.46388 15.8796H2.50024V12.8905ZM22.5005 15.8796H20.5005V11.516C21.1516 11.7214 21.8493 11.7214 22.5005 11.516V15.8796ZM23.5005 9.82796C23.3679 9.82796 23.2407 9.88109 23.1469 9.97565C22.7099 10.4156 22.1177 10.6623 21.5005 10.6623C20.8831 10.6623 20.2909 10.4153 19.8539 9.97565C19.6585 9.77888 19.3422 9.77888 19.1469 9.97565L17.2681 11.8706H17.2679C16.9641 12.1775 16.5516 12.3502 16.1212 12.3504C15.6911 12.3504 15.2784 12.1782 14.9744 11.8713C14.6701 11.5644 14.4994 11.1484 14.4994 10.7146C14.4996 10.2805 14.6708 9.86445 14.975 9.55783L15.2324 9.29825L15.2326 9.29848C15.7242 8.8025 16.0003 8.13004 16.0003 7.42891C16.0005 6.72761 15.7242 6.05513 15.2326 5.55935C14.7411 5.06337 14.0743 4.78485 13.379 4.78485H10.0562C10.1866 4.20758 10.5382 3.70598 11.0341 3.38945L14.1938 1.36139C14.7502 1.00342 15.4355 0.91269 16.0645 1.11396L24.0006 3.64155V9.82808L23.5005 9.82796Z" fill="#F2A053"/>
<path d="M3.00024 29.4956V28.9913H4.50026C4.77638 28.9913 5.00027 28.7655 5.00027 28.487V27.9541L5.04759 27.9881C7.11036 29.4742 9.6289 30.174 12.1551 29.9632C14.6815 29.7523 17.0516 28.6444 18.8438 26.8365L22.6039 23.0441C23.1418 22.5015 23.3744 21.723 23.2226 20.9708C23.0711 20.2188 22.5556 19.5936 21.85 19.3061C21.1446 19.0186 20.3431 19.1073 19.7161 19.5418C19.4422 18.9459 18.8862 18.5319 18.2408 18.4434C17.5955 18.3547 16.95 18.6041 16.5283 19.1046C15.9986 18.7847 15.3502 18.7367 14.7798 18.9752C14.2095 19.2138 13.785 19.7107 13.6354 20.3147L13.1097 22.4353H10.2072L9.85367 22.0787C9.228 21.4479 8.41393 21.0417 7.53712 20.9228C6.66008 20.8039 5.76882 20.9789 5.00006 21.4208V20.9223C5.00006 20.6439 4.77617 20.418 4.50006 20.418H3.00004C3.00004 20.1395 2.77615 19.9137 2.50003 19.9137H0V20.9223H2.00003V28.9912H0V29.9999H2.50003C2.77615 29.9999 3.00004 29.774 3.00004 29.4956L3.00024 29.4956ZM17.7633 19.4619C18.0291 19.3948 18.3111 19.4522 18.5303 19.6182C18.7495 19.7841 18.8829 20.041 18.8934 20.3172L15.4043 23.8364C15.3463 23.654 15.2626 23.4809 15.1559 23.3224L17.2034 19.8802C17.3273 19.6711 17.5287 19.5205 17.7633 19.4619L17.7633 19.4619ZM14.6056 20.5595C14.6699 20.3008 14.838 20.0806 15.0699 19.9523C15.3019 19.8237 15.5764 19.7987 15.8273 19.8832C15.8842 19.9025 15.9394 19.9271 15.9918 19.9568L14.3911 22.6474C14.3025 22.6028 14.2105 22.5648 14.1163 22.5339L14.6056 20.5595ZM7.00041 21.8954C7.80602 21.8932 8.57877 22.216 9.14683 22.7922L9.64684 23.2965C9.74059 23.3911 9.86783 23.4442 10.0004 23.4442H13.5005C13.8578 23.4442 14.188 23.6365 14.3665 23.9485C14.5451 24.2605 14.5451 24.6451 14.3665 24.9571C14.188 25.2691 13.8578 25.4614 13.5005 25.4614H9.0004V26.47H13.5005C13.8621 26.4698 14.217 26.3707 14.5273 26.1832C14.8375 25.9959 15.0916 25.7273 15.2625 25.4058L20.1039 20.5228H20.1041C20.4245 20.2002 20.891 20.0741 21.3285 20.1925C21.7658 20.3107 22.1073 20.6552 22.2245 21.0962C22.3419 21.5373 22.2169 22.008 21.897 22.3311L18.1369 26.1236C16.5119 27.7626 14.363 28.7671 12.0729 28.9583C9.78244 29.1494 7.49915 28.515 5.62878 27.1678L5.0002 26.7148V22.655C5.55245 22.1637 6.26382 21.8935 7.00023 21.8956L7.00041 21.8954ZM4.00037 21.4269V27.9829H3.00036V21.4269H4.00037Z" fill="#F2A053"/>
</svg>
