<svg width="21" height="28" viewBox="0 0 21 28" fill="none" xmlns="http://www.w3.org/2000/svg">
<path fill-rule="evenodd" clip-rule="evenodd" d="M21 8.04042V24.7346C21 25.3671 20.733 25.9737 20.2578 26.4209C19.7826 26.8682 19.1381 27.1195 18.4661 27.1195H3.26245C2.59041 27.1195 1.94589 26.8682 1.47069 26.4209C0.995483 25.9737 0.728516 25.3671 0.728516 24.7346V2.4757C0.728516 1.84319 0.995483 1.23659 1.47069 0.789336C1.94589 0.342084 2.59041 0.0908203 3.26245 0.0908203H12.5535L21 8.04042ZM12.5535 8.83538C12.3295 8.83538 12.1147 8.75163 11.9563 8.60254C11.7979 8.45346 11.7089 8.25126 11.7089 8.04042V1.68074H3.26245C3.03844 1.68074 2.8236 1.7645 2.6652 1.91358C2.50679 2.06266 2.41781 2.26486 2.41781 2.4757V24.7346C2.41781 24.9454 2.50679 25.1476 2.6652 25.2967C2.8236 25.4458 3.03844 25.5295 3.26245 25.5295H18.4661C18.6901 25.5295 18.9049 25.4458 19.0633 25.2967C19.2217 25.1476 19.3107 24.9454 19.3107 24.7346V8.83538H12.5535ZM13.3982 3.13393L17.7667 7.24546H13.3982V3.13393Z" fill="#894302"/>
</svg>
