<svg width="275" height="98" viewBox="0 0 275 98" fill="none" xmlns="http://www.w3.org/2000/svg">
<line x1="15.6953" y1="0.5" x2="15.6953" y2="41.6931" stroke="url(#paint0_linear_33_6739)" stroke-linecap="round" stroke-dasharray="6 6"/>
<line x1="260" y1="0.5" x2="260" y2="41.6931" stroke="url(#paint1_linear_33_6739)" stroke-linecap="round" stroke-dasharray="6 6"/>
<rect y="36.9996" width="275" height="61" rx="5" fill="#FEF3E8"/>
<rect x="0.5" y="37.4996" width="274" height="60" rx="4.5" stroke="#894302" stroke-opacity="0.1"/>
<path d="M56.6063 68.0855C56.3148 65.1528 55.0046 62.388 52.917 60.3004C51.1329 58.5164 48.9493 57.37 46.6516 56.8602V55.2487C47.5901 55.0152 48.2876 54.1657 48.2876 53.1561C48.2876 51.9669 47.3203 50.9996 46.1311 50.9996H41.5645C40.3754 50.9996 39.408 51.9669 39.408 53.1561C39.408 54.1657 40.1055 55.0151 41.0439 55.2487V56.8647C38.7533 57.3766 36.5769 58.5215 34.7979 60.3004C34.4086 60.6897 34.0496 61.0981 33.721 61.5226C33.7051 61.5214 33.6892 61.5202 33.6729 61.5202H29.1531C28.8029 61.5202 28.5189 61.8041 28.5189 62.1544C28.5189 62.5047 28.8029 62.7887 29.1531 62.7887H32.858C32.3929 63.5673 32.018 64.3849 31.7325 65.2265H24.8296C24.4793 65.2265 24.1953 65.5105 24.1953 65.8608C24.1953 66.2111 24.4793 66.4951 24.8296 66.4951H31.3741C31.1913 67.2975 31.0864 68.1141 31.0593 68.933H28.2546C27.9043 68.933 27.6203 69.2169 27.6203 69.5672C27.6203 69.9175 27.9043 70.2015 28.2546 70.2015H31.0796C31.1331 71.0225 31.2651 71.8392 31.4756 72.6394H27.3666C27.0164 72.6394 26.7324 72.9234 26.7324 73.2737C26.7324 73.624 27.0164 73.9079 27.3666 73.9079H31.8804C32.5026 75.5539 33.475 77.0966 34.7979 78.4195C36.8876 80.5092 39.6552 81.8197 42.591 82.1097C43.01 82.1511 43.4293 82.1716 43.848 82.1716C46.323 82.1716 48.7666 81.4553 50.84 80.1051C51.1335 79.9139 51.2165 79.521 51.0254 79.2275C50.8342 78.9339 50.4413 78.8509 50.1477 79.0421C45.6092 81.9975 39.5308 81.3585 35.6949 77.5226C31.1941 73.0217 31.1941 65.6984 35.6949 61.1975C40.1957 56.6967 47.519 56.6967 52.0199 61.1975C55.8508 65.0284 56.4933 71.1015 53.5476 75.6379C53.3568 75.9317 53.4404 76.3245 53.7341 76.5152C54.028 76.706 54.4207 76.6225 54.6115 76.3287C56.1853 73.9049 56.8938 70.9774 56.6063 68.0855ZM40.6765 53.1561C40.6765 52.6665 41.0748 52.2682 41.5645 52.2682H46.1311C46.6208 52.2682 47.0191 52.6665 47.0191 53.1561C47.0191 53.6458 46.6208 54.0441 46.1311 54.0441H46.0174H41.6782H41.5645C41.0748 54.0441 40.6765 53.6457 40.6765 53.1561ZM42.3125 56.6466V55.3126H45.3831V56.6444C44.3635 56.5231 43.3319 56.5239 42.3125 56.6466Z" fill="#894302"/>
<path d="M52.4682 77.3365C52.3008 77.3365 52.1378 77.4044 52.0199 77.5223C51.9013 77.6403 51.834 77.8039 51.834 77.9707C51.834 78.1375 51.9013 78.3012 52.0199 78.4192C52.1378 78.5378 52.3009 78.605 52.4682 78.605C52.635 78.605 52.798 78.5378 52.9167 78.4192C53.0346 78.3012 53.1025 78.1375 53.1025 77.9707C53.1025 77.8039 53.0347 77.6403 52.9167 77.5223C52.798 77.4044 52.635 77.3365 52.4682 77.3365Z" fill="#894302"/>
<path d="M43.8568 59.5208C38.4315 59.5208 34.0176 63.9346 34.0176 69.36C34.0176 74.7854 38.4315 79.1993 43.8568 79.1993C49.2821 79.1993 53.696 74.7854 53.696 69.36C53.696 63.9346 49.2821 59.5208 43.8568 59.5208ZM43.8568 77.9307C39.1309 77.9307 35.2861 74.0859 35.2861 69.36C35.2861 64.6342 39.1309 60.7893 43.8568 60.7893C48.5827 60.7893 52.4275 64.6342 52.4275 69.36C52.4275 74.0859 48.5827 77.9307 43.8568 77.9307Z" fill="#894302"/>
<path d="M47.8695 64.4508L44.728 67.5923C44.4653 67.4624 44.1698 67.389 43.8574 67.389C43.545 67.389 43.2495 67.4624 42.9868 67.5923L41.5808 66.1863C41.3331 65.9386 40.9316 65.9386 40.6838 66.1863C40.4361 66.434 40.4361 66.8356 40.6838 67.0833L42.0898 68.4892C41.9598 68.7519 41.8865 69.0474 41.8865 69.3598C41.8865 70.4466 42.7706 71.3307 43.8574 71.3307C44.9442 71.3307 45.8283 70.4466 45.8283 69.3598C45.8283 69.0474 45.7549 68.7519 45.625 68.4892L48.6743 65.44L48.7664 65.3478C49.0141 65.1001 49.0141 64.6985 48.7664 64.4508C48.5188 64.2032 48.1173 64.2032 47.8695 64.4508ZM43.8574 70.0623C43.4701 70.0623 43.155 69.7472 43.155 69.3599C43.155 68.9726 43.4701 68.6575 43.8574 68.6575C44.2447 68.6575 44.5598 68.9726 44.5598 69.3599C44.5598 69.7472 44.2447 70.0623 43.8574 70.0623Z" fill="#894302"/>
<path d="M24.8296 72.6392C24.6628 72.6392 24.4991 72.707 24.3811 72.825C24.2632 72.943 24.1953 73.1066 24.1953 73.2734C24.1953 73.4409 24.2631 73.6039 24.3811 73.7218C24.4992 73.8398 24.6628 73.9077 24.8296 73.9077C24.9964 73.9077 25.16 73.8398 25.2779 73.7218C25.3959 73.6039 25.4638 73.4402 25.4638 73.2734C25.4638 73.1066 25.3959 72.943 25.2779 72.825C25.16 72.707 24.9964 72.6392 24.8296 72.6392Z" fill="#894302"/>
<circle cx="260" cy="45.1939" r="3.5" fill="white" stroke="#FCD7B1"/>
<circle cx="15.6953" cy="45.1939" r="3.5" fill="white" stroke="#FCD7B1"/>
<path d="M78.6133 58.7051C78.6133 60.0762 78.2656 61.1543 77.5703 61.9395C76.8789 62.7246 75.916 63.1172 74.6816 63.1172C73.4199 63.1172 72.4453 62.7324 71.7578 61.9629C71.0742 61.1895 70.7324 60.0996 70.7324 58.6934C70.7324 57.2988 71.0762 56.2188 71.7637 55.4531C72.4512 54.6836 73.4277 54.2988 74.6934 54.2988C75.9238 54.2988 76.8848 54.6895 77.5762 55.4707C78.2676 56.252 78.6133 57.3301 78.6133 58.7051ZM71.7871 58.7051C71.7871 59.8652 72.0332 60.7461 72.5254 61.3477C73.0215 61.9453 73.7402 62.2441 74.6816 62.2441C75.6309 62.2441 76.3477 61.9453 76.832 61.3477C77.3164 60.75 77.5586 59.8691 77.5586 58.7051C77.5586 57.5527 77.3164 56.6797 76.832 56.0859C76.3516 55.4883 75.6387 55.1895 74.6934 55.1895C73.7441 55.1895 73.0215 55.4902 72.5254 56.0918C72.0332 56.6895 71.7871 57.5605 71.7871 58.7051ZM84.7773 63V58.8457C84.7773 58.3223 84.6582 57.9316 84.4199 57.6738C84.1816 57.416 83.8086 57.2871 83.3008 57.2871C82.6289 57.2871 82.1367 57.4688 81.8242 57.832C81.5117 58.1953 81.3555 58.7949 81.3555 59.6309V63H80.3828V56.5781H81.1738L81.332 57.457H81.3789C81.5781 57.1406 81.8574 56.8965 82.2168 56.7246C82.5762 56.5488 82.9766 56.4609 83.418 56.4609C84.1914 56.4609 84.7734 56.6484 85.1641 57.0234C85.5547 57.3945 85.75 57.9902 85.75 58.8105V63H84.7773ZM94.8203 63L94.627 62.0859H94.5801C94.2598 62.4883 93.9395 62.7617 93.6191 62.9062C93.3027 63.0469 92.9062 63.1172 92.4297 63.1172C91.793 63.1172 91.293 62.9531 90.9297 62.625C90.5703 62.2969 90.3906 61.8301 90.3906 61.2246C90.3906 59.9277 91.4277 59.248 93.502 59.1855L94.5918 59.1504V58.752C94.5918 58.248 94.4824 57.877 94.2637 57.6387C94.0488 57.3965 93.7031 57.2754 93.2266 57.2754C92.6914 57.2754 92.0859 57.4395 91.4102 57.7676L91.1113 57.0234C91.4277 56.8516 91.7734 56.7168 92.1484 56.6191C92.5273 56.5215 92.9062 56.4727 93.2852 56.4727C94.0508 56.4727 94.6172 56.6426 94.9844 56.9824C95.3555 57.3223 95.541 57.8672 95.541 58.6172V63H94.8203ZM92.623 62.3145C93.2285 62.3145 93.7031 62.1484 94.0469 61.8164C94.3945 61.4844 94.5684 61.0195 94.5684 60.4219V59.8418L93.5957 59.8828C92.8223 59.9102 92.2637 60.0312 91.9199 60.2461C91.5801 60.457 91.4102 60.7871 91.4102 61.2363C91.4102 61.5879 91.5156 61.8555 91.7266 62.0391C91.9414 62.2227 92.2402 62.3145 92.623 62.3145ZM101.945 63V58.8457C101.945 58.3223 101.826 57.9316 101.588 57.6738C101.35 57.416 100.977 57.2871 100.469 57.2871C99.7969 57.2871 99.3047 57.4688 98.9922 57.832C98.6797 58.1953 98.5234 58.7949 98.5234 59.6309V63H97.5508V56.5781H98.3418L98.5 57.457H98.5469C98.7461 57.1406 99.0254 56.8965 99.3848 56.7246C99.7441 56.5488 100.145 56.4609 100.586 56.4609C101.359 56.4609 101.941 56.6484 102.332 57.0234C102.723 57.3945 102.918 57.9902 102.918 58.8105V63H101.945ZM111.988 63L111.795 62.0859H111.748C111.428 62.4883 111.107 62.7617 110.787 62.9062C110.471 63.0469 110.074 63.1172 109.598 63.1172C108.961 63.1172 108.461 62.9531 108.098 62.625C107.738 62.2969 107.559 61.8301 107.559 61.2246C107.559 59.9277 108.596 59.248 110.67 59.1855L111.76 59.1504V58.752C111.76 58.248 111.65 57.877 111.432 57.6387C111.217 57.3965 110.871 57.2754 110.395 57.2754C109.859 57.2754 109.254 57.4395 108.578 57.7676L108.279 57.0234C108.596 56.8516 108.941 56.7168 109.316 56.6191C109.695 56.5215 110.074 56.4727 110.453 56.4727C111.219 56.4727 111.785 56.6426 112.152 56.9824C112.523 57.3223 112.709 57.8672 112.709 58.6172V63H111.988ZM109.791 62.3145C110.396 62.3145 110.871 62.1484 111.215 61.8164C111.562 61.4844 111.736 61.0195 111.736 60.4219V59.8418L110.764 59.8828C109.99 59.9102 109.432 60.0312 109.088 60.2461C108.748 60.457 108.578 60.7871 108.578 61.2363C108.578 61.5879 108.684 61.8555 108.895 62.0391C109.109 62.2227 109.408 62.3145 109.791 62.3145ZM116.125 63L113.688 56.5781H114.73L116.113 60.3867C116.426 61.2773 116.609 61.8555 116.664 62.1211H116.711C116.754 61.9141 116.889 61.4863 117.115 60.8379C117.346 60.1855 117.859 58.7656 118.656 56.5781H119.699L117.262 63H116.125ZM123.443 63.1172C122.494 63.1172 121.744 62.8281 121.193 62.25C120.646 61.6719 120.373 60.8691 120.373 59.8418C120.373 58.8066 120.627 57.9844 121.135 57.375C121.646 56.7656 122.332 56.4609 123.191 56.4609C123.996 56.4609 124.633 56.7266 125.102 57.2578C125.57 57.7852 125.805 58.4824 125.805 59.3496V59.9648H121.381C121.4 60.7188 121.59 61.291 121.949 61.6816C122.312 62.0723 122.822 62.2676 123.479 62.2676C124.17 62.2676 124.854 62.123 125.529 61.834V62.7012C125.186 62.8496 124.859 62.9551 124.551 63.0176C124.246 63.084 123.877 63.1172 123.443 63.1172ZM123.18 57.2754C122.664 57.2754 122.252 57.4434 121.943 57.7793C121.639 58.1152 121.459 58.5801 121.404 59.1738H124.762C124.762 58.5605 124.625 58.0918 124.352 57.7676C124.078 57.4395 123.688 57.2754 123.18 57.2754ZM130.398 56.4609C130.684 56.4609 130.939 56.4844 131.166 56.5312L131.031 57.4336C130.766 57.375 130.531 57.3457 130.328 57.3457C129.809 57.3457 129.363 57.5566 128.992 57.9785C128.625 58.4004 128.441 58.9258 128.441 59.5547V63H127.469V56.5781H128.271L128.383 57.7676H128.43C128.668 57.3496 128.955 57.0273 129.291 56.8008C129.627 56.5742 129.996 56.4609 130.398 56.4609ZM136.316 63L136.123 62.0859H136.076C135.756 62.4883 135.436 62.7617 135.115 62.9062C134.799 63.0469 134.402 63.1172 133.926 63.1172C133.289 63.1172 132.789 62.9531 132.426 62.625C132.066 62.2969 131.887 61.8301 131.887 61.2246C131.887 59.9277 132.924 59.248 134.998 59.1855L136.088 59.1504V58.752C136.088 58.248 135.979 57.877 135.76 57.6387C135.545 57.3965 135.199 57.2754 134.723 57.2754C134.188 57.2754 133.582 57.4395 132.906 57.7676L132.607 57.0234C132.924 56.8516 133.27 56.7168 133.645 56.6191C134.023 56.5215 134.402 56.4727 134.781 56.4727C135.547 56.4727 136.113 56.6426 136.48 56.9824C136.852 57.3223 137.037 57.8672 137.037 58.6172V63H136.316ZM134.119 62.3145C134.725 62.3145 135.199 62.1484 135.543 61.8164C135.891 61.4844 136.064 61.0195 136.064 60.4219V59.8418L135.092 59.8828C134.318 59.9102 133.76 60.0312 133.416 60.2461C133.076 60.457 132.906 60.7871 132.906 61.2363C132.906 61.5879 133.012 61.8555 133.223 62.0391C133.438 62.2227 133.736 62.3145 134.119 62.3145ZM144.303 56.5781V57.1934L143.113 57.334C143.223 57.4707 143.32 57.6504 143.406 57.873C143.492 58.0918 143.535 58.3398 143.535 58.6172C143.535 59.2461 143.32 59.748 142.891 60.123C142.461 60.498 141.871 60.6855 141.121 60.6855C140.93 60.6855 140.75 60.6699 140.582 60.6387C140.168 60.8574 139.961 61.1328 139.961 61.4648C139.961 61.6406 140.033 61.7715 140.178 61.8574C140.322 61.9395 140.57 61.9805 140.922 61.9805H142.059C142.754 61.9805 143.287 62.127 143.658 62.4199C144.033 62.7129 144.221 63.1387 144.221 63.6973C144.221 64.4082 143.936 64.9492 143.365 65.3203C142.795 65.6953 141.963 65.8828 140.869 65.8828C140.029 65.8828 139.381 65.7266 138.924 65.4141C138.471 65.1016 138.244 64.6602 138.244 64.0898C138.244 63.6992 138.369 63.3613 138.619 63.0762C138.869 62.791 139.221 62.5977 139.674 62.4961C139.51 62.4219 139.371 62.3066 139.258 62.1504C139.148 61.9941 139.094 61.8125 139.094 61.6055C139.094 61.3711 139.156 61.166 139.281 60.9902C139.406 60.8145 139.604 60.6445 139.873 60.4805C139.541 60.3438 139.27 60.1113 139.059 59.7832C138.852 59.4551 138.748 59.0801 138.748 58.6582C138.748 57.9551 138.959 57.4141 139.381 57.0352C139.803 56.6523 140.4 56.4609 141.174 56.4609C141.51 56.4609 141.812 56.5 142.082 56.5781H144.303ZM139.182 64.0781C139.182 64.4258 139.328 64.6895 139.621 64.8691C139.914 65.0488 140.334 65.1387 140.881 65.1387C141.697 65.1387 142.301 65.0156 142.691 64.7695C143.086 64.5273 143.283 64.1973 143.283 63.7793C143.283 63.4316 143.176 63.1895 142.961 63.0527C142.746 62.9199 142.342 62.8535 141.748 62.8535H140.582C140.141 62.8535 139.797 62.959 139.551 63.1699C139.305 63.3809 139.182 63.6836 139.182 64.0781ZM139.709 58.6348C139.709 59.084 139.836 59.4238 140.09 59.6543C140.344 59.8848 140.697 60 141.15 60C142.1 60 142.574 59.5391 142.574 58.6172C142.574 57.6523 142.094 57.1699 141.133 57.1699C140.676 57.1699 140.324 57.293 140.078 57.5391C139.832 57.7852 139.709 58.1504 139.709 58.6348ZM148.334 63.1172C147.385 63.1172 146.635 62.8281 146.084 62.25C145.537 61.6719 145.264 60.8691 145.264 59.8418C145.264 58.8066 145.518 57.9844 146.025 57.375C146.537 56.7656 147.223 56.4609 148.082 56.4609C148.887 56.4609 149.523 56.7266 149.992 57.2578C150.461 57.7852 150.695 58.4824 150.695 59.3496V59.9648H146.271C146.291 60.7188 146.48 61.291 146.84 61.6816C147.203 62.0723 147.713 62.2676 148.369 62.2676C149.061 62.2676 149.744 62.123 150.42 61.834V62.7012C150.076 62.8496 149.75 62.9551 149.441 63.0176C149.137 63.084 148.768 63.1172 148.334 63.1172ZM148.07 57.2754C147.555 57.2754 147.143 57.4434 146.834 57.7793C146.529 58.1152 146.35 58.5801 146.295 59.1738H149.652C149.652 58.5605 149.516 58.0918 149.242 57.7676C148.969 57.4395 148.578 57.2754 148.07 57.2754ZM153.379 61.6055L153.467 61.7402C153.365 62.1309 153.219 62.584 153.027 63.0996C152.836 63.6191 152.637 64.1016 152.43 64.5469H151.697C151.803 64.1406 151.918 63.6387 152.043 63.041C152.172 62.4434 152.262 61.9648 152.312 61.6055H153.379ZM161.406 63.1172C160.988 63.1172 160.605 63.041 160.258 62.8887C159.914 62.7324 159.625 62.4941 159.391 62.1738H159.32C159.367 62.5488 159.391 62.9043 159.391 63.2402V65.8828H158.418V56.5781H159.209L159.344 57.457H159.391C159.641 57.1055 159.932 56.8516 160.264 56.6953C160.596 56.5391 160.977 56.4609 161.406 56.4609C162.258 56.4609 162.914 56.752 163.375 57.334C163.84 57.916 164.072 58.7324 164.072 59.7832C164.072 60.8379 163.836 61.6582 163.363 62.2441C162.895 62.8262 162.242 63.1172 161.406 63.1172ZM161.266 57.2871C160.609 57.2871 160.135 57.4688 159.842 57.832C159.549 58.1953 159.398 58.7734 159.391 59.5664V59.7832C159.391 60.6855 159.541 61.332 159.842 61.7227C160.143 62.1094 160.625 62.3027 161.289 62.3027C161.844 62.3027 162.277 62.0781 162.59 61.6289C162.906 61.1797 163.064 60.5605 163.064 59.7715C163.064 58.9707 162.906 58.3574 162.59 57.9316C162.277 57.502 161.836 57.2871 161.266 57.2871ZM168.49 63.1172C167.541 63.1172 166.791 62.8281 166.24 62.25C165.693 61.6719 165.42 60.8691 165.42 59.8418C165.42 58.8066 165.674 57.9844 166.182 57.375C166.693 56.7656 167.379 56.4609 168.238 56.4609C169.043 56.4609 169.68 56.7266 170.148 57.2578C170.617 57.7852 170.852 58.4824 170.852 59.3496V59.9648H166.428C166.447 60.7188 166.637 61.291 166.996 61.6816C167.359 62.0723 167.869 62.2676 168.525 62.2676C169.217 62.2676 169.9 62.123 170.576 61.834V62.7012C170.232 62.8496 169.906 62.9551 169.598 63.0176C169.293 63.084 168.924 63.1172 168.49 63.1172ZM168.227 57.2754C167.711 57.2754 167.299 57.4434 166.99 57.7793C166.686 58.1152 166.506 58.5801 166.451 59.1738H169.809C169.809 58.5605 169.672 58.0918 169.398 57.7676C169.125 57.4395 168.734 57.2754 168.227 57.2754ZM178.059 59.7832C178.059 60.8301 177.795 61.6484 177.268 62.2383C176.74 62.8242 176.012 63.1172 175.082 63.1172C174.508 63.1172 173.998 62.9824 173.553 62.7129C173.107 62.4434 172.764 62.0566 172.521 61.5527C172.279 61.0488 172.158 60.459 172.158 59.7832C172.158 58.7363 172.42 57.9219 172.943 57.3398C173.467 56.7539 174.193 56.4609 175.123 56.4609C176.021 56.4609 176.734 56.7598 177.262 57.3574C177.793 57.9551 178.059 58.7637 178.059 59.7832ZM173.166 59.7832C173.166 60.6035 173.33 61.2285 173.658 61.6582C173.986 62.0879 174.469 62.3027 175.105 62.3027C175.742 62.3027 176.225 62.0898 176.553 61.6641C176.885 61.2344 177.051 60.6074 177.051 59.7832C177.051 58.9668 176.885 58.3477 176.553 57.9258C176.225 57.5 175.738 57.2871 175.094 57.2871C174.457 57.2871 173.977 57.4961 173.652 57.9141C173.328 58.332 173.166 58.9551 173.166 59.7832ZM182.758 63.1172C182.34 63.1172 181.957 63.041 181.609 62.8887C181.266 62.7324 180.977 62.4941 180.742 62.1738H180.672C180.719 62.5488 180.742 62.9043 180.742 63.2402V65.8828H179.77V56.5781H180.561L180.695 57.457H180.742C180.992 57.1055 181.283 56.8516 181.615 56.6953C181.947 56.5391 182.328 56.4609 182.758 56.4609C183.609 56.4609 184.266 56.752 184.727 57.334C185.191 57.916 185.424 58.7324 185.424 59.7832C185.424 60.8379 185.188 61.6582 184.715 62.2441C184.246 62.8262 183.594 63.1172 182.758 63.1172ZM182.617 57.2871C181.961 57.2871 181.486 57.4688 181.193 57.832C180.9 58.1953 180.75 58.7734 180.742 59.5664V59.7832C180.742 60.6855 180.893 61.332 181.193 61.7227C181.494 62.1094 181.977 62.3027 182.641 62.3027C183.195 62.3027 183.629 62.0781 183.941 61.6289C184.258 61.1797 184.416 60.5605 184.416 59.7715C184.416 58.9707 184.258 58.3574 183.941 57.9316C183.629 57.502 183.188 57.2871 182.617 57.2871ZM188.102 63H187.129V53.8828H188.102V63ZM192.877 63.1172C191.928 63.1172 191.178 62.8281 190.627 62.25C190.08 61.6719 189.807 60.8691 189.807 59.8418C189.807 58.8066 190.061 57.9844 190.568 57.375C191.08 56.7656 191.766 56.4609 192.625 56.4609C193.43 56.4609 194.066 56.7266 194.535 57.2578C195.004 57.7852 195.238 58.4824 195.238 59.3496V59.9648H190.814C190.834 60.7188 191.023 61.291 191.383 61.6816C191.746 62.0723 192.256 62.2676 192.912 62.2676C193.604 62.2676 194.287 62.123 194.963 61.834V62.7012C194.619 62.8496 194.293 62.9551 193.984 63.0176C193.68 63.084 193.311 63.1172 192.877 63.1172ZM192.613 57.2754C192.098 57.2754 191.686 57.4434 191.377 57.7793C191.072 58.1152 190.893 58.5801 190.838 59.1738H194.195C194.195 58.5605 194.059 58.0918 193.785 57.7676C193.512 57.4395 193.121 57.2754 192.613 57.2754ZM205.275 56.5781V57.1934L204.086 57.334C204.195 57.4707 204.293 57.6504 204.379 57.873C204.465 58.0918 204.508 58.3398 204.508 58.6172C204.508 59.2461 204.293 59.748 203.863 60.123C203.434 60.498 202.844 60.6855 202.094 60.6855C201.902 60.6855 201.723 60.6699 201.555 60.6387C201.141 60.8574 200.934 61.1328 200.934 61.4648C200.934 61.6406 201.006 61.7715 201.15 61.8574C201.295 61.9395 201.543 61.9805 201.895 61.9805H203.031C203.727 61.9805 204.26 62.127 204.631 62.4199C205.006 62.7129 205.193 63.1387 205.193 63.6973C205.193 64.4082 204.908 64.9492 204.338 65.3203C203.768 65.6953 202.936 65.8828 201.842 65.8828C201.002 65.8828 200.354 65.7266 199.896 65.4141C199.443 65.1016 199.217 64.6602 199.217 64.0898C199.217 63.6992 199.342 63.3613 199.592 63.0762C199.842 62.791 200.193 62.5977 200.646 62.4961C200.482 62.4219 200.344 62.3066 200.23 62.1504C200.121 61.9941 200.066 61.8125 200.066 61.6055C200.066 61.3711 200.129 61.166 200.254 60.9902C200.379 60.8145 200.576 60.6445 200.846 60.4805C200.514 60.3438 200.242 60.1113 200.031 59.7832C199.824 59.4551 199.721 59.0801 199.721 58.6582C199.721 57.9551 199.932 57.4141 200.354 57.0352C200.775 56.6523 201.373 56.4609 202.146 56.4609C202.482 56.4609 202.785 56.5 203.055 56.5781H205.275ZM200.154 64.0781C200.154 64.4258 200.301 64.6895 200.594 64.8691C200.887 65.0488 201.307 65.1387 201.854 65.1387C202.67 65.1387 203.273 65.0156 203.664 64.7695C204.059 64.5273 204.256 64.1973 204.256 63.7793C204.256 63.4316 204.148 63.1895 203.934 63.0527C203.719 62.9199 203.314 62.8535 202.721 62.8535H201.555C201.113 62.8535 200.77 62.959 200.523 63.1699C200.277 63.3809 200.154 63.6836 200.154 64.0781ZM200.682 58.6348C200.682 59.084 200.809 59.4238 201.062 59.6543C201.316 59.8848 201.67 60 202.123 60C203.072 60 203.547 59.5391 203.547 58.6172C203.547 57.6523 203.066 57.1699 202.105 57.1699C201.648 57.1699 201.297 57.293 201.051 57.5391C200.805 57.7852 200.682 58.1504 200.682 58.6348ZM209.307 63.1172C208.357 63.1172 207.607 62.8281 207.057 62.25C206.51 61.6719 206.236 60.8691 206.236 59.8418C206.236 58.8066 206.49 57.9844 206.998 57.375C207.51 56.7656 208.195 56.4609 209.055 56.4609C209.859 56.4609 210.496 56.7266 210.965 57.2578C211.434 57.7852 211.668 58.4824 211.668 59.3496V59.9648H207.244C207.264 60.7188 207.453 61.291 207.812 61.6816C208.176 62.0723 208.686 62.2676 209.342 62.2676C210.033 62.2676 210.717 62.123 211.393 61.834V62.7012C211.049 62.8496 210.723 62.9551 210.414 63.0176C210.109 63.084 209.74 63.1172 209.307 63.1172ZM209.043 57.2754C208.527 57.2754 208.115 57.4434 207.807 57.7793C207.502 58.1152 207.322 58.5801 207.268 59.1738H210.625C210.625 58.5605 210.488 58.0918 210.215 57.7676C209.941 57.4395 209.551 57.2754 209.043 57.2754ZM215.406 62.3145C215.578 62.3145 215.744 62.3027 215.904 62.2793C216.064 62.252 216.191 62.2246 216.285 62.1973V62.9414C216.18 62.9922 216.023 63.0332 215.816 63.0645C215.613 63.0996 215.43 63.1172 215.266 63.1172C214.023 63.1172 213.402 62.4629 213.402 61.1543V57.334H212.482V56.8652L213.402 56.4609L213.812 55.0898H214.375V56.5781H216.238V57.334H214.375V61.1133C214.375 61.5 214.467 61.7969 214.65 62.0039C214.834 62.2109 215.086 62.3145 215.406 62.3145ZM222.766 62.3145C222.938 62.3145 223.104 62.3027 223.264 62.2793C223.424 62.252 223.551 62.2246 223.645 62.1973V62.9414C223.539 62.9922 223.383 63.0332 223.176 63.0645C222.973 63.0996 222.789 63.1172 222.625 63.1172C221.383 63.1172 220.762 62.4629 220.762 61.1543V57.334H219.842V56.8652L220.762 56.4609L221.172 55.0898H221.734V56.5781H223.598V57.334H221.734V61.1133C221.734 61.5 221.826 61.7969 222.01 62.0039C222.193 62.2109 222.445 62.3145 222.766 62.3145ZM229.328 63V58.8457C229.328 58.3223 229.209 57.9316 228.971 57.6738C228.732 57.416 228.359 57.2871 227.852 57.2871C227.176 57.2871 226.682 57.4707 226.369 57.8379C226.061 58.2051 225.906 58.8066 225.906 59.6426V63H224.934V53.8828H225.906V56.6426C225.906 56.9746 225.891 57.25 225.859 57.4688H225.918C226.109 57.1602 226.381 56.918 226.732 56.7422C227.088 56.5625 227.492 56.4727 227.945 56.4727C228.73 56.4727 229.318 56.6602 229.709 57.0352C230.104 57.4062 230.301 57.998 230.301 58.8105V63H229.328ZM235.018 63.1172C234.068 63.1172 233.318 62.8281 232.768 62.25C232.221 61.6719 231.947 60.8691 231.947 59.8418C231.947 58.8066 232.201 57.9844 232.709 57.375C233.221 56.7656 233.906 56.4609 234.766 56.4609C235.57 56.4609 236.207 56.7266 236.676 57.2578C237.145 57.7852 237.379 58.4824 237.379 59.3496V59.9648H232.955C232.975 60.7188 233.164 61.291 233.523 61.6816C233.887 62.0723 234.396 62.2676 235.053 62.2676C235.744 62.2676 236.428 62.123 237.104 61.834V62.7012C236.76 62.8496 236.434 62.9551 236.125 63.0176C235.82 63.084 235.451 63.1172 235.018 63.1172ZM234.754 57.2754C234.238 57.2754 233.826 57.4434 233.518 57.7793C233.213 58.1152 233.033 58.5801 232.979 59.1738H236.336C236.336 58.5605 236.199 58.0918 235.926 57.7676C235.652 57.4395 235.262 57.2754 234.754 57.2754ZM240.016 63H239.043V56.5781H240.016V63ZM238.961 54.8379C238.961 54.6152 239.016 54.4531 239.125 54.3516C239.234 54.2461 239.371 54.1934 239.535 54.1934C239.691 54.1934 239.826 54.2461 239.939 54.3516C240.053 54.457 240.109 54.6191 240.109 54.8379C240.109 55.0566 240.053 55.2207 239.939 55.3301C239.826 55.4355 239.691 55.4883 239.535 55.4883C239.371 55.4883 239.234 55.4355 239.125 55.3301C239.016 55.2207 238.961 55.0566 238.961 54.8379ZM245.008 56.4609C245.293 56.4609 245.549 56.4844 245.775 56.5312L245.641 57.4336C245.375 57.375 245.141 57.3457 244.938 57.3457C244.418 57.3457 243.973 57.5566 243.602 57.9785C243.234 58.4004 243.051 58.9258 243.051 59.5547V63H242.078V56.5781H242.881L242.992 57.7676H243.039C243.277 57.3496 243.564 57.0273 243.9 56.8008C244.236 56.5742 244.605 56.4609 245.008 56.4609ZM72.0039 81H71.0312V71.8828H72.0039V81ZM79.6094 77.7832C79.6094 78.8301 79.3457 79.6484 78.8184 80.2383C78.291 80.8242 77.5625 81.1172 76.6328 81.1172C76.0586 81.1172 75.5488 80.9824 75.1035 80.7129C74.6582 80.4434 74.3145 80.0566 74.0723 79.5527C73.8301 79.0488 73.709 78.459 73.709 77.7832C73.709 76.7363 73.9707 75.9219 74.4941 75.3398C75.0176 74.7539 75.7441 74.4609 76.6738 74.4609C77.5723 74.4609 78.2852 74.7598 78.8125 75.3574C79.3438 75.9551 79.6094 76.7637 79.6094 77.7832ZM74.7168 77.7832C74.7168 78.6035 74.8809 79.2285 75.209 79.6582C75.5371 80.0879 76.0195 80.3027 76.6562 80.3027C77.293 80.3027 77.7754 80.0898 78.1035 79.6641C78.4355 79.2344 78.6016 78.6074 78.6016 77.7832C78.6016 76.9668 78.4355 76.3477 78.1035 75.9258C77.7754 75.5 77.2891 75.2871 76.6445 75.2871C76.0078 75.2871 75.5273 75.4961 75.2031 75.9141C74.8789 76.332 74.7168 76.9551 74.7168 77.7832ZM85.2695 81L85.0762 80.0859H85.0293C84.709 80.4883 84.3887 80.7617 84.0684 80.9062C83.752 81.0469 83.3555 81.1172 82.8789 81.1172C82.2422 81.1172 81.7422 80.9531 81.3789 80.625C81.0195 80.2969 80.8398 79.8301 80.8398 79.2246C80.8398 77.9277 81.877 77.248 83.9512 77.1855L85.041 77.1504V76.752C85.041 76.248 84.9316 75.877 84.7129 75.6387C84.498 75.3965 84.1523 75.2754 83.6758 75.2754C83.1406 75.2754 82.5352 75.4395 81.8594 75.7676L81.5605 75.0234C81.877 74.8516 82.2227 74.7168 82.5977 74.6191C82.9766 74.5215 83.3555 74.4727 83.7344 74.4727C84.5 74.4727 85.0664 74.6426 85.4336 74.9824C85.8047 75.3223 85.9902 75.8672 85.9902 76.6172V81H85.2695ZM83.0723 80.3145C83.6777 80.3145 84.1523 80.1484 84.4961 79.8164C84.8438 79.4844 85.0176 79.0195 85.0176 78.4219V77.8418L84.0449 77.8828C83.2715 77.9102 82.7129 78.0312 82.3691 78.2461C82.0293 78.457 81.8594 78.7871 81.8594 79.2363C81.8594 79.5879 81.9648 79.8555 82.1758 80.0391C82.3906 80.2227 82.6895 80.3145 83.0723 80.3145ZM92.3945 81V76.8457C92.3945 76.3223 92.2754 75.9316 92.0371 75.6738C91.7988 75.416 91.4258 75.2871 90.918 75.2871C90.2461 75.2871 89.7539 75.4688 89.4414 75.832C89.1289 76.1953 88.9727 76.7949 88.9727 77.6309V81H88V74.5781H88.791L88.9492 75.457H88.9961C89.1953 75.1406 89.4746 74.8965 89.834 74.7246C90.1934 74.5488 90.5938 74.4609 91.0352 74.4609C91.8086 74.4609 92.3906 74.6484 92.7812 75.0234C93.1719 75.3945 93.3672 75.9902 93.3672 76.8105V81H92.3945ZM102.859 80.1387H102.807C102.357 80.791 101.686 81.1172 100.791 81.1172C99.9512 81.1172 99.2969 80.8301 98.8281 80.2559C98.3633 79.6816 98.1309 78.8652 98.1309 77.8066C98.1309 76.748 98.3652 75.9258 98.834 75.3398C99.3027 74.7539 99.9551 74.4609 100.791 74.4609C101.662 74.4609 102.33 74.7773 102.795 75.4102H102.871L102.83 74.9473L102.807 74.4961V71.8828H103.779V81H102.988L102.859 80.1387ZM100.914 80.3027C101.578 80.3027 102.059 80.123 102.355 79.7637C102.656 79.4004 102.807 78.8164 102.807 78.0117V77.8066C102.807 76.8965 102.654 76.248 102.35 75.8613C102.049 75.4707 101.566 75.2754 100.902 75.2754C100.332 75.2754 99.8945 75.498 99.5898 75.9434C99.2891 76.3848 99.1387 77.0098 99.1387 77.8184C99.1387 78.6387 99.2891 79.2578 99.5898 79.6758C99.8906 80.0938 100.332 80.3027 100.914 80.3027ZM106.82 81H105.848V74.5781H106.82V81ZM105.766 72.8379C105.766 72.6152 105.82 72.4531 105.93 72.3516C106.039 72.2461 106.176 72.1934 106.34 72.1934C106.496 72.1934 106.631 72.2461 106.744 72.3516C106.857 72.457 106.914 72.6191 106.914 72.8379C106.914 73.0566 106.857 73.2207 106.744 73.3301C106.631 73.4355 106.496 73.4883 106.34 73.4883C106.176 73.4883 106.039 73.4355 105.93 73.3301C105.82 73.2207 105.766 73.0566 105.766 72.8379ZM113.025 79.248C113.025 79.8457 112.803 80.3066 112.357 80.6309C111.912 80.9551 111.287 81.1172 110.482 81.1172C109.631 81.1172 108.967 80.9824 108.49 80.7129V79.8105C108.799 79.9668 109.129 80.0898 109.48 80.1797C109.836 80.2695 110.178 80.3145 110.506 80.3145C111.014 80.3145 111.404 80.2344 111.678 80.0742C111.951 79.9102 112.088 79.6621 112.088 79.3301C112.088 79.0801 111.979 78.8672 111.76 78.6914C111.545 78.5117 111.123 78.3008 110.494 78.0586C109.896 77.8359 109.471 77.6426 109.217 77.4785C108.967 77.3105 108.779 77.1211 108.654 76.9102C108.533 76.6992 108.473 76.4473 108.473 76.1543C108.473 75.6309 108.686 75.2188 109.111 74.918C109.537 74.6133 110.121 74.4609 110.863 74.4609C111.555 74.4609 112.23 74.6016 112.891 74.8828L112.545 75.6738C111.9 75.4082 111.316 75.2754 110.793 75.2754C110.332 75.2754 109.984 75.3477 109.75 75.4922C109.516 75.6367 109.398 75.8359 109.398 76.0898C109.398 76.2617 109.441 76.4082 109.527 76.5293C109.617 76.6504 109.76 76.7656 109.955 76.875C110.15 76.9844 110.525 77.1426 111.08 77.3496C111.842 77.627 112.355 77.9062 112.621 78.1875C112.891 78.4688 113.025 78.8223 113.025 79.248ZM117.602 74.4727C118.445 74.4727 119.1 74.7617 119.564 75.3398C120.033 75.9141 120.268 76.7285 120.268 77.7832C120.268 78.8379 120.031 79.6582 119.559 80.2441C119.09 80.8262 118.438 81.1172 117.602 81.1172C117.184 81.1172 116.801 81.041 116.453 80.8887C116.109 80.7324 115.82 80.4941 115.586 80.1738H115.516L115.311 81H114.613V71.8828H115.586V74.0977C115.586 74.5938 115.57 75.0391 115.539 75.4336H115.586C116.039 74.793 116.711 74.4727 117.602 74.4727ZM117.461 75.2871C116.797 75.2871 116.318 75.4785 116.025 75.8613C115.732 76.2402 115.586 76.8809 115.586 77.7832C115.586 78.6855 115.736 79.332 116.037 79.7227C116.338 80.1094 116.82 80.3027 117.484 80.3027C118.082 80.3027 118.527 80.0859 118.82 79.6523C119.113 79.2148 119.26 78.5879 119.26 77.7715C119.26 76.9355 119.113 76.3125 118.82 75.9023C118.527 75.4922 118.074 75.2871 117.461 75.2871ZM122.887 74.5781V78.7441C122.887 79.2676 123.006 79.6582 123.244 79.916C123.482 80.1738 123.855 80.3027 124.363 80.3027C125.035 80.3027 125.525 80.1191 125.834 79.752C126.146 79.3848 126.303 78.7852 126.303 77.9531V74.5781H127.275V81H126.473L126.332 80.1387H126.279C126.08 80.4551 125.803 80.6973 125.447 80.8652C125.096 81.0332 124.693 81.1172 124.24 81.1172C123.459 81.1172 122.873 80.9316 122.482 80.5605C122.096 80.1895 121.902 79.5957 121.902 78.7793V74.5781H122.887ZM132.273 74.4609C132.559 74.4609 132.814 74.4844 133.041 74.5312L132.906 75.4336C132.641 75.375 132.406 75.3457 132.203 75.3457C131.684 75.3457 131.238 75.5566 130.867 75.9785C130.5 76.4004 130.316 76.9258 130.316 77.5547V81H129.344V74.5781H130.146L130.258 75.7676H130.305C130.543 75.3496 130.83 75.0273 131.166 74.8008C131.502 74.5742 131.871 74.4609 132.273 74.4609ZM138.385 79.248C138.385 79.8457 138.162 80.3066 137.717 80.6309C137.271 80.9551 136.646 81.1172 135.842 81.1172C134.99 81.1172 134.326 80.9824 133.85 80.7129V79.8105C134.158 79.9668 134.488 80.0898 134.84 80.1797C135.195 80.2695 135.537 80.3145 135.865 80.3145C136.373 80.3145 136.764 80.2344 137.037 80.0742C137.311 79.9102 137.447 79.6621 137.447 79.3301C137.447 79.0801 137.338 78.8672 137.119 78.6914C136.904 78.5117 136.482 78.3008 135.854 78.0586C135.256 77.8359 134.83 77.6426 134.576 77.4785C134.326 77.3105 134.139 77.1211 134.014 76.9102C133.893 76.6992 133.832 76.4473 133.832 76.1543C133.832 75.6309 134.045 75.2188 134.471 74.918C134.896 74.6133 135.48 74.4609 136.223 74.4609C136.914 74.4609 137.59 74.6016 138.25 74.8828L137.904 75.6738C137.26 75.4082 136.676 75.2754 136.152 75.2754C135.691 75.2754 135.344 75.3477 135.109 75.4922C134.875 75.6367 134.758 75.8359 134.758 76.0898C134.758 76.2617 134.801 76.4082 134.887 76.5293C134.977 76.6504 135.119 76.7656 135.314 76.875C135.51 76.9844 135.885 77.1426 136.439 77.3496C137.201 77.627 137.715 77.9062 137.98 78.1875C138.25 78.4688 138.385 78.8223 138.385 79.248ZM142.686 81.1172C141.736 81.1172 140.986 80.8281 140.436 80.25C139.889 79.6719 139.615 78.8691 139.615 77.8418C139.615 76.8066 139.869 75.9844 140.377 75.375C140.889 74.7656 141.574 74.4609 142.434 74.4609C143.238 74.4609 143.875 74.7266 144.344 75.2578C144.812 75.7852 145.047 76.4824 145.047 77.3496V77.9648H140.623C140.643 78.7188 140.832 79.291 141.191 79.6816C141.555 80.0723 142.064 80.2676 142.721 80.2676C143.412 80.2676 144.096 80.123 144.771 79.834V80.7012C144.428 80.8496 144.102 80.9551 143.793 81.0176C143.488 81.084 143.119 81.1172 142.686 81.1172ZM142.422 75.2754C141.906 75.2754 141.494 75.4434 141.186 75.7793C140.881 76.1152 140.701 76.5801 140.646 77.1738H144.004C144.004 76.5605 143.867 76.0918 143.594 75.7676C143.32 75.4395 142.93 75.2754 142.422 75.2754ZM151.082 80.1387H151.029C150.58 80.791 149.908 81.1172 149.014 81.1172C148.174 81.1172 147.52 80.8301 147.051 80.2559C146.586 79.6816 146.354 78.8652 146.354 77.8066C146.354 76.748 146.588 75.9258 147.057 75.3398C147.525 74.7539 148.178 74.4609 149.014 74.4609C149.885 74.4609 150.553 74.7773 151.018 75.4102H151.094L151.053 74.9473L151.029 74.4961V71.8828H152.002V81H151.211L151.082 80.1387ZM149.137 80.3027C149.801 80.3027 150.281 80.123 150.578 79.7637C150.879 79.4004 151.029 78.8164 151.029 78.0117V77.8066C151.029 76.8965 150.877 76.248 150.572 75.8613C150.271 75.4707 149.789 75.2754 149.125 75.2754C148.555 75.2754 148.117 75.498 147.812 75.9434C147.512 76.3848 147.361 77.0098 147.361 77.8184C147.361 78.6387 147.512 79.2578 147.812 79.6758C148.113 80.0938 148.555 80.3027 149.137 80.3027ZM158.16 81H157.188V74.5781H158.16V81ZM157.105 72.8379C157.105 72.6152 157.16 72.4531 157.27 72.3516C157.379 72.2461 157.516 72.1934 157.68 72.1934C157.836 72.1934 157.971 72.2461 158.084 72.3516C158.197 72.457 158.254 72.6191 158.254 72.8379C158.254 73.0566 158.197 73.2207 158.084 73.3301C157.971 73.4355 157.836 73.4883 157.68 73.4883C157.516 73.4883 157.379 73.4355 157.27 73.3301C157.16 73.2207 157.105 73.0566 157.105 72.8379ZM164.617 81V76.8457C164.617 76.3223 164.498 75.9316 164.26 75.6738C164.021 75.416 163.648 75.2871 163.141 75.2871C162.469 75.2871 161.977 75.4688 161.664 75.832C161.352 76.1953 161.195 76.7949 161.195 77.6309V81H160.223V74.5781H161.014L161.172 75.457H161.219C161.418 75.1406 161.697 74.8965 162.057 74.7246C162.416 74.5488 162.816 74.4609 163.258 74.4609C164.031 74.4609 164.613 74.6484 165.004 75.0234C165.395 75.3945 165.59 75.9902 165.59 76.8105V81H164.617ZM173.869 81H172.92V74.8945C172.92 74.3867 172.936 73.9062 172.967 73.4531C172.885 73.5352 172.793 73.6211 172.691 73.7109C172.59 73.8008 172.125 74.1816 171.297 74.8535L170.781 74.1855L173.049 72.4336H173.869V81ZM179.811 75.7676C180.713 75.7676 181.422 75.9922 181.938 76.4414C182.457 76.8867 182.717 77.498 182.717 78.2754C182.717 79.1621 182.434 79.8574 181.867 80.3613C181.305 80.8652 180.527 81.1172 179.535 81.1172C178.57 81.1172 177.834 80.9629 177.326 80.6543V79.7168C177.6 79.8926 177.939 80.0312 178.346 80.1328C178.752 80.2305 179.152 80.2793 179.547 80.2793C180.234 80.2793 180.768 80.1172 181.146 79.793C181.529 79.4688 181.721 79 181.721 78.3867C181.721 77.1914 180.988 76.5938 179.523 76.5938C179.152 76.5938 178.656 76.6504 178.035 76.7637L177.531 76.4414L177.854 72.4336H182.113V73.3301H178.686L178.469 75.9023C178.918 75.8125 179.365 75.7676 179.811 75.7676ZM183.906 78.2285V77.3379H186.783V78.2285H183.906ZM193.498 81H187.867V80.1621L190.123 77.8945C190.811 77.1992 191.264 76.7031 191.482 76.4062C191.701 76.1094 191.865 75.8203 191.975 75.5391C192.084 75.2578 192.139 74.9551 192.139 74.6309C192.139 74.1738 192 73.8125 191.723 73.5469C191.445 73.2773 191.061 73.1426 190.568 73.1426C190.213 73.1426 189.875 73.2012 189.555 73.3184C189.238 73.4355 188.885 73.6484 188.494 73.957L187.979 73.2949C188.768 72.6387 189.627 72.3105 190.557 72.3105C191.361 72.3105 191.992 72.5176 192.449 72.9316C192.906 73.3418 193.135 73.8945 193.135 74.5898C193.135 75.1328 192.982 75.6699 192.678 76.2012C192.373 76.7324 191.803 77.4043 190.967 78.2168L189.092 80.0508V80.0977H193.498V81ZM200.412 76.7051C200.412 78.1855 200.178 79.291 199.709 80.0215C199.244 80.752 198.531 81.1172 197.57 81.1172C196.648 81.1172 195.947 80.7441 195.467 79.998C194.986 79.248 194.746 78.1504 194.746 76.7051C194.746 75.2129 194.979 74.1055 195.443 73.3828C195.908 72.6602 196.617 72.2988 197.57 72.2988C198.5 72.2988 199.205 72.6758 199.686 73.4297C200.17 74.1836 200.412 75.2754 200.412 76.7051ZM195.73 76.7051C195.73 77.9512 195.877 78.8594 196.17 79.4297C196.463 79.9961 196.93 80.2793 197.57 80.2793C198.219 80.2793 198.688 79.9922 198.977 79.418C199.27 78.8398 199.416 77.9355 199.416 76.7051C199.416 75.4746 199.27 74.5742 198.977 74.0039C198.688 73.4297 198.219 73.1426 197.57 73.1426C196.93 73.1426 196.463 73.4258 196.17 73.9922C195.877 74.5547 195.73 75.459 195.73 76.7051ZM210.232 81V76.8223C210.232 76.3105 210.123 75.9277 209.904 75.6738C209.686 75.416 209.346 75.2871 208.885 75.2871C208.279 75.2871 207.832 75.4609 207.543 75.8086C207.254 76.1562 207.109 76.6914 207.109 77.4141V81H206.137V76.8223C206.137 76.3105 206.027 75.9277 205.809 75.6738C205.59 75.416 205.248 75.2871 204.783 75.2871C204.174 75.2871 203.727 75.4707 203.441 75.8379C203.16 76.2012 203.02 76.7988 203.02 77.6309V81H202.047V74.5781H202.838L202.996 75.457H203.043C203.227 75.1445 203.484 74.9004 203.816 74.7246C204.152 74.5488 204.527 74.4609 204.941 74.4609C205.945 74.4609 206.602 74.8242 206.91 75.5508H206.957C207.148 75.2148 207.426 74.9492 207.789 74.7539C208.152 74.5586 208.566 74.4609 209.031 74.4609C209.758 74.4609 210.301 74.6484 210.66 75.0234C211.023 75.3945 211.205 75.9902 211.205 76.8105V81H210.232ZM214.188 81H213.215V74.5781H214.188V81ZM213.133 72.8379C213.133 72.6152 213.188 72.4531 213.297 72.3516C213.406 72.2461 213.543 72.1934 213.707 72.1934C213.863 72.1934 213.998 72.2461 214.111 72.3516C214.225 72.457 214.281 72.6191 214.281 72.8379C214.281 73.0566 214.225 73.2207 214.111 73.3301C213.998 73.4355 213.863 73.4883 213.707 73.4883C213.543 73.4883 213.406 73.4355 213.297 73.3301C213.188 73.2207 213.133 73.0566 213.133 72.8379ZM220.645 81V76.8457C220.645 76.3223 220.525 75.9316 220.287 75.6738C220.049 75.416 219.676 75.2871 219.168 75.2871C218.496 75.2871 218.004 75.4688 217.691 75.832C217.379 76.1953 217.223 76.7949 217.223 77.6309V81H216.25V74.5781H217.041L217.199 75.457H217.246C217.445 75.1406 217.725 74.8965 218.084 74.7246C218.443 74.5488 218.844 74.4609 219.285 74.4609C220.059 74.4609 220.641 74.6484 221.031 75.0234C221.422 75.3945 221.617 75.9902 221.617 76.8105V81H220.645Z" fill="#944104"/>
<defs>
<linearGradient id="paint0_linear_33_6739" x1="14.1953" y1="3.35327e-08" x2="14.1953" y2="46.0289" gradientUnits="userSpaceOnUse">
<stop stop-color="#F27C1A"/>
<stop offset="1" stop-color="#F27C1A" stop-opacity="0"/>
</linearGradient>
<linearGradient id="paint1_linear_33_6739" x1="258.5" y1="3.35327e-08" x2="258.5" y2="46.0289" gradientUnits="userSpaceOnUse">
<stop stop-color="#F27C1A"/>
<stop offset="1" stop-color="#F27C1A" stop-opacity="0"/>
</linearGradient>
</defs>
</svg>
