<svg width="263" height="61" viewBox="0 0 263 61" fill="none" xmlns="http://www.w3.org/2000/svg">
<rect x="0.875" width="262" height="61" rx="5" fill="#FEF3E8"/>
<rect x="1.375" y="0.5" width="261" height="60" rx="4.5" stroke="#894302" stroke-opacity="0.1"/>
<path d="M52.286 31.086C51.9945 28.1533 50.6843 25.3885 48.5967 23.3008C46.8126 21.5168 44.629 20.3704 42.3313 19.8606V18.2491C43.2698 18.0156 43.9673 17.1662 43.9673 16.1565C43.9673 14.9674 42.9999 14 41.8108 14H37.2442C36.055 14 35.0877 14.9674 35.0877 16.1565C35.0877 17.1661 35.7852 18.0156 36.7236 18.2491V19.8651C34.433 20.377 32.2566 21.5219 30.4776 23.3009C30.0883 23.6902 29.7293 24.0986 29.4007 24.523C29.3848 24.5218 29.3689 24.5206 29.3526 24.5206H24.8328C24.4826 24.5206 24.1986 24.8046 24.1986 25.1549C24.1986 25.5052 24.4826 25.7891 24.8328 25.7891H28.5377C28.0726 26.5677 27.6977 27.3853 27.4122 28.227H20.5093C20.159 28.227 19.875 28.5109 19.875 28.8612C19.875 29.2115 20.159 29.4955 20.5093 29.4955H27.0538C26.871 30.2979 26.7661 31.1145 26.739 31.9334H23.9343C23.584 31.9334 23.3 32.2174 23.3 32.5677C23.3 32.918 23.584 33.2019 23.9343 33.2019H26.7593C26.8128 34.0229 26.9448 34.8396 27.1553 35.6398H23.0463C22.6961 35.6398 22.412 35.9238 22.412 36.2741C22.412 36.6244 22.6961 36.9083 23.0463 36.9083H27.5601C28.1823 38.5543 29.1547 40.097 30.4776 41.42C32.5673 43.5096 35.3349 44.8201 38.2706 45.1102C38.6896 45.1515 39.1089 45.172 39.5277 45.172C42.0027 45.172 44.4463 44.4557 46.5197 43.1055C46.8132 42.9144 46.8962 42.5214 46.705 42.2279C46.5139 41.9344 46.121 41.8513 45.8274 42.0425C41.2888 44.998 35.2105 44.3589 31.3746 40.523C26.8737 36.0222 26.8737 28.6988 31.3746 24.1979C35.8754 19.6971 43.1987 19.6971 47.6996 24.1979C51.5305 28.0288 52.173 34.1019 49.2273 38.6383C49.0365 38.9321 49.1201 39.3249 49.4138 39.5157C49.7077 39.7065 50.1004 39.6229 50.2912 39.3291C51.865 36.9053 52.5735 33.9779 52.286 31.086ZM36.3562 16.1565C36.3562 15.6669 36.7545 15.2686 37.2442 15.2686H41.8108C42.3005 15.2686 42.6988 15.6669 42.6988 16.1565C42.6988 16.6462 42.3005 17.0445 41.8108 17.0445H41.6971H37.3579H37.2442C36.7545 17.0445 36.3562 16.6461 36.3562 16.1565ZM37.9921 19.6471V18.313H41.0628V19.6448C40.0432 19.5235 39.0116 19.5243 37.9921 19.6471Z" fill="#894302"/>
<path d="M48.1479 40.3369C47.9805 40.3369 47.8175 40.4048 47.6996 40.5227C47.581 40.6407 47.5137 40.8044 47.5137 40.9712C47.5137 41.138 47.581 41.3016 47.6996 41.4196C47.8175 41.5382 47.9805 41.6054 48.1479 41.6054C48.3147 41.6054 48.4777 41.5382 48.5963 41.4196C48.7143 41.3016 48.7822 41.138 48.7822 40.9712C48.7822 40.8044 48.7144 40.6407 48.5963 40.5227C48.4777 40.4048 48.3147 40.3369 48.1479 40.3369Z" fill="#894302"/>
<path d="M39.5365 22.5212C34.1111 22.5212 29.6973 26.935 29.6973 32.3604C29.6973 37.7858 34.1111 42.1996 39.5365 42.1996C44.9618 42.1996 49.3757 37.7858 49.3757 32.3604C49.3757 26.935 44.9618 22.5212 39.5365 22.5212ZM39.5365 40.9311C34.8105 40.9311 30.9658 37.0863 30.9658 32.3604C30.9658 27.6345 34.8105 23.7897 39.5365 23.7897C44.2624 23.7897 48.1072 27.6345 48.1072 32.3604C48.1072 37.0863 44.2624 40.9311 39.5365 40.9311Z" fill="#894302"/>
<path d="M43.5492 27.4513L40.4077 30.5927C40.145 30.4628 39.8495 30.3894 39.5371 30.3894C39.2246 30.3894 38.9292 30.4628 38.6665 30.5927L37.2605 29.1867C37.0128 28.939 36.6113 28.939 36.3635 29.1867C36.1158 29.4344 36.1158 29.836 36.3635 30.0837L37.7695 31.4897C37.6395 31.7524 37.5662 32.0479 37.5662 32.3602C37.5662 33.447 38.4503 34.3311 39.5371 34.3311C40.6239 34.3311 41.508 33.447 41.508 32.3602C41.508 32.0479 41.4346 31.7524 41.3047 31.4897L44.354 28.4404L44.4461 28.3482C44.6938 28.1006 44.6938 27.6989 44.4461 27.4513C44.1984 27.2036 43.797 27.2036 43.5492 27.4513ZM39.5371 33.0627C39.1498 33.0627 38.8347 32.7476 38.8347 32.3603C38.8347 31.973 39.1498 31.6579 39.5371 31.6579C39.9244 31.6579 40.2395 31.973 40.2395 32.3603C40.2395 32.7476 39.9244 33.0627 39.5371 33.0627Z" fill="#894302"/>
<path d="M20.5093 35.6396C20.3424 35.6396 20.1788 35.7075 20.0608 35.8254C19.9429 35.9434 19.875 36.107 19.875 36.2738C19.875 36.4413 19.9428 36.6043 20.0608 36.7223C20.1789 36.8402 20.3424 36.9081 20.5093 36.9081C20.6761 36.9081 20.8397 36.8402 20.9576 36.7223C21.0756 36.6043 21.1435 36.4406 21.1435 36.2738C21.1435 36.107 21.0756 35.9434 20.9576 35.8254C20.8397 35.7075 20.6761 35.6396 20.5093 35.6396Z" fill="#894302"/>
<path d="M74.4883 21.7051C74.4883 23.0762 74.1406 24.1543 73.4453 24.9395C72.7539 25.7246 71.791 26.1172 70.5566 26.1172C69.2949 26.1172 68.3203 25.7324 67.6328 24.9629C66.9492 24.1895 66.6074 23.0996 66.6074 21.6934C66.6074 20.2988 66.9512 19.2188 67.6387 18.4531C68.3262 17.6836 69.3027 17.2988 70.5684 17.2988C71.7988 17.2988 72.7598 17.6895 73.4512 18.4707C74.1426 19.252 74.4883 20.3301 74.4883 21.7051ZM67.6621 21.7051C67.6621 22.8652 67.9082 23.7461 68.4004 24.3477C68.8965 24.9453 69.6152 25.2441 70.5566 25.2441C71.5059 25.2441 72.2227 24.9453 72.707 24.3477C73.1914 23.75 73.4336 22.8691 73.4336 21.7051C73.4336 20.5527 73.1914 19.6797 72.707 19.0859C72.2266 18.4883 71.5137 18.1895 70.5684 18.1895C69.6191 18.1895 68.8965 18.4902 68.4004 19.0918C67.9082 19.6895 67.6621 20.5605 67.6621 21.7051ZM80.6523 26V21.8457C80.6523 21.3223 80.5332 20.9316 80.2949 20.6738C80.0566 20.416 79.6836 20.2871 79.1758 20.2871C78.5039 20.2871 78.0117 20.4688 77.6992 20.832C77.3867 21.1953 77.2305 21.7949 77.2305 22.6309V26H76.2578V19.5781H77.0488L77.207 20.457H77.2539C77.4531 20.1406 77.7324 19.8965 78.0918 19.7246C78.4512 19.5488 78.8516 19.4609 79.293 19.4609C80.0664 19.4609 80.6484 19.6484 81.0391 20.0234C81.4297 20.3945 81.625 20.9902 81.625 21.8105V26H80.6523ZM90.6953 26L90.502 25.0859H90.4551C90.1348 25.4883 89.8145 25.7617 89.4941 25.9062C89.1777 26.0469 88.7812 26.1172 88.3047 26.1172C87.668 26.1172 87.168 25.9531 86.8047 25.625C86.4453 25.2969 86.2656 24.8301 86.2656 24.2246C86.2656 22.9277 87.3027 22.248 89.377 22.1855L90.4668 22.1504V21.752C90.4668 21.248 90.3574 20.877 90.1387 20.6387C89.9238 20.3965 89.5781 20.2754 89.1016 20.2754C88.5664 20.2754 87.9609 20.4395 87.2852 20.7676L86.9863 20.0234C87.3027 19.8516 87.6484 19.7168 88.0234 19.6191C88.4023 19.5215 88.7812 19.4727 89.1602 19.4727C89.9258 19.4727 90.4922 19.6426 90.8594 19.9824C91.2305 20.3223 91.416 20.8672 91.416 21.6172V26H90.6953ZM88.498 25.3145C89.1035 25.3145 89.5781 25.1484 89.9219 24.8164C90.2695 24.4844 90.4434 24.0195 90.4434 23.4219V22.8418L89.4707 22.8828C88.6973 22.9102 88.1387 23.0312 87.7949 23.2461C87.4551 23.457 87.2852 23.7871 87.2852 24.2363C87.2852 24.5879 87.3906 24.8555 87.6016 25.0391C87.8164 25.2227 88.1152 25.3145 88.498 25.3145ZM97.8203 26V21.8457C97.8203 21.3223 97.7012 20.9316 97.4629 20.6738C97.2246 20.416 96.8516 20.2871 96.3438 20.2871C95.6719 20.2871 95.1797 20.4688 94.8672 20.832C94.5547 21.1953 94.3984 21.7949 94.3984 22.6309V26H93.4258V19.5781H94.2168L94.375 20.457H94.4219C94.6211 20.1406 94.9004 19.8965 95.2598 19.7246C95.6191 19.5488 96.0195 19.4609 96.4609 19.4609C97.2344 19.4609 97.8164 19.6484 98.207 20.0234C98.5977 20.3945 98.793 20.9902 98.793 21.8105V26H97.8203ZM107.863 26L107.67 25.0859H107.623C107.303 25.4883 106.982 25.7617 106.662 25.9062C106.346 26.0469 105.949 26.1172 105.473 26.1172C104.836 26.1172 104.336 25.9531 103.973 25.625C103.613 25.2969 103.434 24.8301 103.434 24.2246C103.434 22.9277 104.471 22.248 106.545 22.1855L107.635 22.1504V21.752C107.635 21.248 107.525 20.877 107.307 20.6387C107.092 20.3965 106.746 20.2754 106.27 20.2754C105.734 20.2754 105.129 20.4395 104.453 20.7676L104.154 20.0234C104.471 19.8516 104.816 19.7168 105.191 19.6191C105.57 19.5215 105.949 19.4727 106.328 19.4727C107.094 19.4727 107.66 19.6426 108.027 19.9824C108.398 20.3223 108.584 20.8672 108.584 21.6172V26H107.863ZM105.666 25.3145C106.271 25.3145 106.746 25.1484 107.09 24.8164C107.438 24.4844 107.611 24.0195 107.611 23.4219V22.8418L106.639 22.8828C105.865 22.9102 105.307 23.0312 104.963 23.2461C104.623 23.457 104.453 23.7871 104.453 24.2363C104.453 24.5879 104.559 24.8555 104.77 25.0391C104.984 25.2227 105.283 25.3145 105.666 25.3145ZM112 26L109.562 19.5781H110.605L111.988 23.3867C112.301 24.2773 112.484 24.8555 112.539 25.1211H112.586C112.629 24.9141 112.764 24.4863 112.99 23.8379C113.221 23.1855 113.734 21.7656 114.531 19.5781H115.574L113.137 26H112ZM119.318 26.1172C118.369 26.1172 117.619 25.8281 117.068 25.25C116.521 24.6719 116.248 23.8691 116.248 22.8418C116.248 21.8066 116.502 20.9844 117.01 20.375C117.521 19.7656 118.207 19.4609 119.066 19.4609C119.871 19.4609 120.508 19.7266 120.977 20.2578C121.445 20.7852 121.68 21.4824 121.68 22.3496V22.9648H117.256C117.275 23.7188 117.465 24.291 117.824 24.6816C118.188 25.0723 118.697 25.2676 119.354 25.2676C120.045 25.2676 120.729 25.123 121.404 24.834V25.7012C121.061 25.8496 120.734 25.9551 120.426 26.0176C120.121 26.084 119.752 26.1172 119.318 26.1172ZM119.055 20.2754C118.539 20.2754 118.127 20.4434 117.818 20.7793C117.514 21.1152 117.334 21.5801 117.279 22.1738H120.637C120.637 21.5605 120.5 21.0918 120.227 20.7676C119.953 20.4395 119.562 20.2754 119.055 20.2754ZM126.273 19.4609C126.559 19.4609 126.814 19.4844 127.041 19.5312L126.906 20.4336C126.641 20.375 126.406 20.3457 126.203 20.3457C125.684 20.3457 125.238 20.5566 124.867 20.9785C124.5 21.4004 124.316 21.9258 124.316 22.5547V26H123.344V19.5781H124.146L124.258 20.7676H124.305C124.543 20.3496 124.83 20.0273 125.166 19.8008C125.502 19.5742 125.871 19.4609 126.273 19.4609ZM132.191 26L131.998 25.0859H131.951C131.631 25.4883 131.311 25.7617 130.99 25.9062C130.674 26.0469 130.277 26.1172 129.801 26.1172C129.164 26.1172 128.664 25.9531 128.301 25.625C127.941 25.2969 127.762 24.8301 127.762 24.2246C127.762 22.9277 128.799 22.248 130.873 22.1855L131.963 22.1504V21.752C131.963 21.248 131.854 20.877 131.635 20.6387C131.42 20.3965 131.074 20.2754 130.598 20.2754C130.062 20.2754 129.457 20.4395 128.781 20.7676L128.482 20.0234C128.799 19.8516 129.145 19.7168 129.52 19.6191C129.898 19.5215 130.277 19.4727 130.656 19.4727C131.422 19.4727 131.988 19.6426 132.355 19.9824C132.727 20.3223 132.912 20.8672 132.912 21.6172V26H132.191ZM129.994 25.3145C130.6 25.3145 131.074 25.1484 131.418 24.8164C131.766 24.4844 131.939 24.0195 131.939 23.4219V22.8418L130.967 22.8828C130.193 22.9102 129.635 23.0312 129.291 23.2461C128.951 23.457 128.781 23.7871 128.781 24.2363C128.781 24.5879 128.887 24.8555 129.098 25.0391C129.312 25.2227 129.611 25.3145 129.994 25.3145ZM140.178 19.5781V20.1934L138.988 20.334C139.098 20.4707 139.195 20.6504 139.281 20.873C139.367 21.0918 139.41 21.3398 139.41 21.6172C139.41 22.2461 139.195 22.748 138.766 23.123C138.336 23.498 137.746 23.6855 136.996 23.6855C136.805 23.6855 136.625 23.6699 136.457 23.6387C136.043 23.8574 135.836 24.1328 135.836 24.4648C135.836 24.6406 135.908 24.7715 136.053 24.8574C136.197 24.9395 136.445 24.9805 136.797 24.9805H137.934C138.629 24.9805 139.162 25.127 139.533 25.4199C139.908 25.7129 140.096 26.1387 140.096 26.6973C140.096 27.4082 139.811 27.9492 139.24 28.3203C138.67 28.6953 137.838 28.8828 136.744 28.8828C135.904 28.8828 135.256 28.7266 134.799 28.4141C134.346 28.1016 134.119 27.6602 134.119 27.0898C134.119 26.6992 134.244 26.3613 134.494 26.0762C134.744 25.791 135.096 25.5977 135.549 25.4961C135.385 25.4219 135.246 25.3066 135.133 25.1504C135.023 24.9941 134.969 24.8125 134.969 24.6055C134.969 24.3711 135.031 24.166 135.156 23.9902C135.281 23.8145 135.479 23.6445 135.748 23.4805C135.416 23.3438 135.145 23.1113 134.934 22.7832C134.727 22.4551 134.623 22.0801 134.623 21.6582C134.623 20.9551 134.834 20.4141 135.256 20.0352C135.678 19.6523 136.275 19.4609 137.049 19.4609C137.385 19.4609 137.688 19.5 137.957 19.5781H140.178ZM135.057 27.0781C135.057 27.4258 135.203 27.6895 135.496 27.8691C135.789 28.0488 136.209 28.1387 136.756 28.1387C137.572 28.1387 138.176 28.0156 138.566 27.7695C138.961 27.5273 139.158 27.1973 139.158 26.7793C139.158 26.4316 139.051 26.1895 138.836 26.0527C138.621 25.9199 138.217 25.8535 137.623 25.8535H136.457C136.016 25.8535 135.672 25.959 135.426 26.1699C135.18 26.3809 135.057 26.6836 135.057 27.0781ZM135.584 21.6348C135.584 22.084 135.711 22.4238 135.965 22.6543C136.219 22.8848 136.572 23 137.025 23C137.975 23 138.449 22.5391 138.449 21.6172C138.449 20.6523 137.969 20.1699 137.008 20.1699C136.551 20.1699 136.199 20.293 135.953 20.5391C135.707 20.7852 135.584 21.1504 135.584 21.6348ZM144.209 26.1172C143.26 26.1172 142.51 25.8281 141.959 25.25C141.412 24.6719 141.139 23.8691 141.139 22.8418C141.139 21.8066 141.393 20.9844 141.9 20.375C142.412 19.7656 143.098 19.4609 143.957 19.4609C144.762 19.4609 145.398 19.7266 145.867 20.2578C146.336 20.7852 146.57 21.4824 146.57 22.3496V22.9648H142.146C142.166 23.7188 142.355 24.291 142.715 24.6816C143.078 25.0723 143.588 25.2676 144.244 25.2676C144.936 25.2676 145.619 25.123 146.295 24.834V25.7012C145.951 25.8496 145.625 25.9551 145.316 26.0176C145.012 26.084 144.643 26.1172 144.209 26.1172ZM143.945 20.2754C143.43 20.2754 143.018 20.4434 142.709 20.7793C142.404 21.1152 142.225 21.5801 142.17 22.1738H145.527C145.527 21.5605 145.391 21.0918 145.117 20.7676C144.844 20.4395 144.453 20.2754 143.945 20.2754ZM149.254 24.6055L149.342 24.7402C149.24 25.1309 149.094 25.584 148.902 26.0996C148.711 26.6191 148.512 27.1016 148.305 27.5469H147.572C147.678 27.1406 147.793 26.6387 147.918 26.041C148.047 25.4434 148.137 24.9648 148.188 24.6055H149.254ZM157.281 26.1172C156.863 26.1172 156.48 26.041 156.133 25.8887C155.789 25.7324 155.5 25.4941 155.266 25.1738H155.195C155.242 25.5488 155.266 25.9043 155.266 26.2402V28.8828H154.293V19.5781H155.084L155.219 20.457H155.266C155.516 20.1055 155.807 19.8516 156.139 19.6953C156.471 19.5391 156.852 19.4609 157.281 19.4609C158.133 19.4609 158.789 19.752 159.25 20.334C159.715 20.916 159.947 21.7324 159.947 22.7832C159.947 23.8379 159.711 24.6582 159.238 25.2441C158.77 25.8262 158.117 26.1172 157.281 26.1172ZM157.141 20.2871C156.484 20.2871 156.01 20.4688 155.717 20.832C155.424 21.1953 155.273 21.7734 155.266 22.5664V22.7832C155.266 23.6855 155.416 24.332 155.717 24.7227C156.018 25.1094 156.5 25.3027 157.164 25.3027C157.719 25.3027 158.152 25.0781 158.465 24.6289C158.781 24.1797 158.939 23.5605 158.939 22.7715C158.939 21.9707 158.781 21.3574 158.465 20.9316C158.152 20.502 157.711 20.2871 157.141 20.2871ZM164.365 26.1172C163.416 26.1172 162.666 25.8281 162.115 25.25C161.568 24.6719 161.295 23.8691 161.295 22.8418C161.295 21.8066 161.549 20.9844 162.057 20.375C162.568 19.7656 163.254 19.4609 164.113 19.4609C164.918 19.4609 165.555 19.7266 166.023 20.2578C166.492 20.7852 166.727 21.4824 166.727 22.3496V22.9648H162.303C162.322 23.7188 162.512 24.291 162.871 24.6816C163.234 25.0723 163.744 25.2676 164.4 25.2676C165.092 25.2676 165.775 25.123 166.451 24.834V25.7012C166.107 25.8496 165.781 25.9551 165.473 26.0176C165.168 26.084 164.799 26.1172 164.365 26.1172ZM164.102 20.2754C163.586 20.2754 163.174 20.4434 162.865 20.7793C162.561 21.1152 162.381 21.5801 162.326 22.1738H165.684C165.684 21.5605 165.547 21.0918 165.273 20.7676C165 20.4395 164.609 20.2754 164.102 20.2754ZM173.934 22.7832C173.934 23.8301 173.67 24.6484 173.143 25.2383C172.615 25.8242 171.887 26.1172 170.957 26.1172C170.383 26.1172 169.873 25.9824 169.428 25.7129C168.982 25.4434 168.639 25.0566 168.396 24.5527C168.154 24.0488 168.033 23.459 168.033 22.7832C168.033 21.7363 168.295 20.9219 168.818 20.3398C169.342 19.7539 170.068 19.4609 170.998 19.4609C171.896 19.4609 172.609 19.7598 173.137 20.3574C173.668 20.9551 173.934 21.7637 173.934 22.7832ZM169.041 22.7832C169.041 23.6035 169.205 24.2285 169.533 24.6582C169.861 25.0879 170.344 25.3027 170.98 25.3027C171.617 25.3027 172.1 25.0898 172.428 24.6641C172.76 24.2344 172.926 23.6074 172.926 22.7832C172.926 21.9668 172.76 21.3477 172.428 20.9258C172.1 20.5 171.613 20.2871 170.969 20.2871C170.332 20.2871 169.852 20.4961 169.527 20.9141C169.203 21.332 169.041 21.9551 169.041 22.7832ZM178.633 26.1172C178.215 26.1172 177.832 26.041 177.484 25.8887C177.141 25.7324 176.852 25.4941 176.617 25.1738H176.547C176.594 25.5488 176.617 25.9043 176.617 26.2402V28.8828H175.645V19.5781H176.436L176.57 20.457H176.617C176.867 20.1055 177.158 19.8516 177.49 19.6953C177.822 19.5391 178.203 19.4609 178.633 19.4609C179.484 19.4609 180.141 19.752 180.602 20.334C181.066 20.916 181.299 21.7324 181.299 22.7832C181.299 23.8379 181.062 24.6582 180.59 25.2441C180.121 25.8262 179.469 26.1172 178.633 26.1172ZM178.492 20.2871C177.836 20.2871 177.361 20.4688 177.068 20.832C176.775 21.1953 176.625 21.7734 176.617 22.5664V22.7832C176.617 23.6855 176.768 24.332 177.068 24.7227C177.369 25.1094 177.852 25.3027 178.516 25.3027C179.07 25.3027 179.504 25.0781 179.816 24.6289C180.133 24.1797 180.291 23.5605 180.291 22.7715C180.291 21.9707 180.133 21.3574 179.816 20.9316C179.504 20.502 179.062 20.2871 178.492 20.2871ZM183.977 26H183.004V16.8828H183.977V26ZM188.752 26.1172C187.803 26.1172 187.053 25.8281 186.502 25.25C185.955 24.6719 185.682 23.8691 185.682 22.8418C185.682 21.8066 185.936 20.9844 186.443 20.375C186.955 19.7656 187.641 19.4609 188.5 19.4609C189.305 19.4609 189.941 19.7266 190.41 20.2578C190.879 20.7852 191.113 21.4824 191.113 22.3496V22.9648H186.689C186.709 23.7188 186.898 24.291 187.258 24.6816C187.621 25.0723 188.131 25.2676 188.787 25.2676C189.479 25.2676 190.162 25.123 190.838 24.834V25.7012C190.494 25.8496 190.168 25.9551 189.859 26.0176C189.555 26.084 189.186 26.1172 188.752 26.1172ZM188.488 20.2754C187.973 20.2754 187.561 20.4434 187.252 20.7793C186.947 21.1152 186.768 21.5801 186.713 22.1738H190.07C190.07 21.5605 189.934 21.0918 189.66 20.7676C189.387 20.4395 188.996 20.2754 188.488 20.2754ZM201.15 19.5781V20.1934L199.961 20.334C200.07 20.4707 200.168 20.6504 200.254 20.873C200.34 21.0918 200.383 21.3398 200.383 21.6172C200.383 22.2461 200.168 22.748 199.738 23.123C199.309 23.498 198.719 23.6855 197.969 23.6855C197.777 23.6855 197.598 23.6699 197.43 23.6387C197.016 23.8574 196.809 24.1328 196.809 24.4648C196.809 24.6406 196.881 24.7715 197.025 24.8574C197.17 24.9395 197.418 24.9805 197.77 24.9805H198.906C199.602 24.9805 200.135 25.127 200.506 25.4199C200.881 25.7129 201.068 26.1387 201.068 26.6973C201.068 27.4082 200.783 27.9492 200.213 28.3203C199.643 28.6953 198.811 28.8828 197.717 28.8828C196.877 28.8828 196.229 28.7266 195.771 28.4141C195.318 28.1016 195.092 27.6602 195.092 27.0898C195.092 26.6992 195.217 26.3613 195.467 26.0762C195.717 25.791 196.068 25.5977 196.521 25.4961C196.357 25.4219 196.219 25.3066 196.105 25.1504C195.996 24.9941 195.941 24.8125 195.941 24.6055C195.941 24.3711 196.004 24.166 196.129 23.9902C196.254 23.8145 196.451 23.6445 196.721 23.4805C196.389 23.3438 196.117 23.1113 195.906 22.7832C195.699 22.4551 195.596 22.0801 195.596 21.6582C195.596 20.9551 195.807 20.4141 196.229 20.0352C196.65 19.6523 197.248 19.4609 198.021 19.4609C198.357 19.4609 198.66 19.5 198.93 19.5781H201.15ZM196.029 27.0781C196.029 27.4258 196.176 27.6895 196.469 27.8691C196.762 28.0488 197.182 28.1387 197.729 28.1387C198.545 28.1387 199.148 28.0156 199.539 27.7695C199.934 27.5273 200.131 27.1973 200.131 26.7793C200.131 26.4316 200.023 26.1895 199.809 26.0527C199.594 25.9199 199.189 25.8535 198.596 25.8535H197.43C196.988 25.8535 196.645 25.959 196.398 26.1699C196.152 26.3809 196.029 26.6836 196.029 27.0781ZM196.557 21.6348C196.557 22.084 196.684 22.4238 196.938 22.6543C197.191 22.8848 197.545 23 197.998 23C198.947 23 199.422 22.5391 199.422 21.6172C199.422 20.6523 198.941 20.1699 197.98 20.1699C197.523 20.1699 197.172 20.293 196.926 20.5391C196.68 20.7852 196.557 21.1504 196.557 21.6348ZM205.182 26.1172C204.232 26.1172 203.482 25.8281 202.932 25.25C202.385 24.6719 202.111 23.8691 202.111 22.8418C202.111 21.8066 202.365 20.9844 202.873 20.375C203.385 19.7656 204.07 19.4609 204.93 19.4609C205.734 19.4609 206.371 19.7266 206.84 20.2578C207.309 20.7852 207.543 21.4824 207.543 22.3496V22.9648H203.119C203.139 23.7188 203.328 24.291 203.688 24.6816C204.051 25.0723 204.561 25.2676 205.217 25.2676C205.908 25.2676 206.592 25.123 207.268 24.834V25.7012C206.924 25.8496 206.598 25.9551 206.289 26.0176C205.984 26.084 205.615 26.1172 205.182 26.1172ZM204.918 20.2754C204.402 20.2754 203.99 20.4434 203.682 20.7793C203.377 21.1152 203.197 21.5801 203.143 22.1738H206.5C206.5 21.5605 206.363 21.0918 206.09 20.7676C205.816 20.4395 205.426 20.2754 204.918 20.2754ZM211.281 25.3145C211.453 25.3145 211.619 25.3027 211.779 25.2793C211.939 25.252 212.066 25.2246 212.16 25.1973V25.9414C212.055 25.9922 211.898 26.0332 211.691 26.0645C211.488 26.0996 211.305 26.1172 211.141 26.1172C209.898 26.1172 209.277 25.4629 209.277 24.1543V20.334H208.357V19.8652L209.277 19.4609L209.688 18.0898H210.25V19.5781H212.113V20.334H210.25V24.1133C210.25 24.5 210.342 24.7969 210.525 25.0039C210.709 25.2109 210.961 25.3145 211.281 25.3145ZM218.641 25.3145C218.812 25.3145 218.979 25.3027 219.139 25.2793C219.299 25.252 219.426 25.2246 219.52 25.1973V25.9414C219.414 25.9922 219.258 26.0332 219.051 26.0645C218.848 26.0996 218.664 26.1172 218.5 26.1172C217.258 26.1172 216.637 25.4629 216.637 24.1543V20.334H215.717V19.8652L216.637 19.4609L217.047 18.0898H217.609V19.5781H219.473V20.334H217.609V24.1133C217.609 24.5 217.701 24.7969 217.885 25.0039C218.068 25.2109 218.32 25.3145 218.641 25.3145ZM225.203 26V21.8457C225.203 21.3223 225.084 20.9316 224.846 20.6738C224.607 20.416 224.234 20.2871 223.727 20.2871C223.051 20.2871 222.557 20.4707 222.244 20.8379C221.936 21.2051 221.781 21.8066 221.781 22.6426V26H220.809V16.8828H221.781V19.6426C221.781 19.9746 221.766 20.25 221.734 20.4688H221.793C221.984 20.1602 222.256 19.918 222.607 19.7422C222.963 19.5625 223.367 19.4727 223.82 19.4727C224.605 19.4727 225.193 19.6602 225.584 20.0352C225.979 20.4062 226.176 20.998 226.176 21.8105V26H225.203ZM230.893 26.1172C229.943 26.1172 229.193 25.8281 228.643 25.25C228.096 24.6719 227.822 23.8691 227.822 22.8418C227.822 21.8066 228.076 20.9844 228.584 20.375C229.096 19.7656 229.781 19.4609 230.641 19.4609C231.445 19.4609 232.082 19.7266 232.551 20.2578C233.02 20.7852 233.254 21.4824 233.254 22.3496V22.9648H228.83C228.85 23.7188 229.039 24.291 229.398 24.6816C229.762 25.0723 230.271 25.2676 230.928 25.2676C231.619 25.2676 232.303 25.123 232.979 24.834V25.7012C232.635 25.8496 232.309 25.9551 232 26.0176C231.695 26.084 231.326 26.1172 230.893 26.1172ZM230.629 20.2754C230.113 20.2754 229.701 20.4434 229.393 20.7793C229.088 21.1152 228.908 21.5801 228.854 22.1738H232.211C232.211 21.5605 232.074 21.0918 231.801 20.7676C231.527 20.4395 231.137 20.2754 230.629 20.2754ZM235.891 26H234.918V19.5781H235.891V26ZM234.836 17.8379C234.836 17.6152 234.891 17.4531 235 17.3516C235.109 17.2461 235.246 17.1934 235.41 17.1934C235.566 17.1934 235.701 17.2461 235.814 17.3516C235.928 17.457 235.984 17.6191 235.984 17.8379C235.984 18.0566 235.928 18.2207 235.814 18.3301C235.701 18.4355 235.566 18.4883 235.41 18.4883C235.246 18.4883 235.109 18.4355 235 18.3301C234.891 18.2207 234.836 18.0566 234.836 17.8379ZM240.883 19.4609C241.168 19.4609 241.424 19.4844 241.65 19.5312L241.516 20.4336C241.25 20.375 241.016 20.3457 240.812 20.3457C240.293 20.3457 239.848 20.5566 239.477 20.9785C239.109 21.4004 238.926 21.9258 238.926 22.5547V26H237.953V19.5781H238.756L238.867 20.7676H238.914C239.152 20.3496 239.439 20.0273 239.775 19.8008C240.111 19.5742 240.48 19.4609 240.883 19.4609ZM67.8789 44H66.9062V34.8828H67.8789V44ZM75.4844 40.7832C75.4844 41.8301 75.2207 42.6484 74.6934 43.2383C74.166 43.8242 73.4375 44.1172 72.5078 44.1172C71.9336 44.1172 71.4238 43.9824 70.9785 43.7129C70.5332 43.4434 70.1895 43.0566 69.9473 42.5527C69.7051 42.0488 69.584 41.459 69.584 40.7832C69.584 39.7363 69.8457 38.9219 70.3691 38.3398C70.8926 37.7539 71.6191 37.4609 72.5488 37.4609C73.4473 37.4609 74.1602 37.7598 74.6875 38.3574C75.2188 38.9551 75.4844 39.7637 75.4844 40.7832ZM70.5918 40.7832C70.5918 41.6035 70.7559 42.2285 71.084 42.6582C71.4121 43.0879 71.8945 43.3027 72.5312 43.3027C73.168 43.3027 73.6504 43.0898 73.9785 42.6641C74.3105 42.2344 74.4766 41.6074 74.4766 40.7832C74.4766 39.9668 74.3105 39.3477 73.9785 38.9258C73.6504 38.5 73.1641 38.2871 72.5195 38.2871C71.8828 38.2871 71.4023 38.4961 71.0781 38.9141C70.7539 39.332 70.5918 39.9551 70.5918 40.7832ZM81.1445 44L80.9512 43.0859H80.9043C80.584 43.4883 80.2637 43.7617 79.9434 43.9062C79.627 44.0469 79.2305 44.1172 78.7539 44.1172C78.1172 44.1172 77.6172 43.9531 77.2539 43.625C76.8945 43.2969 76.7148 42.8301 76.7148 42.2246C76.7148 40.9277 77.752 40.248 79.8262 40.1855L80.916 40.1504V39.752C80.916 39.248 80.8066 38.877 80.5879 38.6387C80.373 38.3965 80.0273 38.2754 79.5508 38.2754C79.0156 38.2754 78.4102 38.4395 77.7344 38.7676L77.4355 38.0234C77.752 37.8516 78.0977 37.7168 78.4727 37.6191C78.8516 37.5215 79.2305 37.4727 79.6094 37.4727C80.375 37.4727 80.9414 37.6426 81.3086 37.9824C81.6797 38.3223 81.8652 38.8672 81.8652 39.6172V44H81.1445ZM78.9473 43.3145C79.5527 43.3145 80.0273 43.1484 80.3711 42.8164C80.7188 42.4844 80.8926 42.0195 80.8926 41.4219V40.8418L79.9199 40.8828C79.1465 40.9102 78.5879 41.0312 78.2441 41.2461C77.9043 41.457 77.7344 41.7871 77.7344 42.2363C77.7344 42.5879 77.8398 42.8555 78.0508 43.0391C78.2656 43.2227 78.5645 43.3145 78.9473 43.3145ZM88.2695 44V39.8457C88.2695 39.3223 88.1504 38.9316 87.9121 38.6738C87.6738 38.416 87.3008 38.2871 86.793 38.2871C86.1211 38.2871 85.6289 38.4688 85.3164 38.832C85.0039 39.1953 84.8477 39.7949 84.8477 40.6309V44H83.875V37.5781H84.666L84.8242 38.457H84.8711C85.0703 38.1406 85.3496 37.8965 85.709 37.7246C86.0684 37.5488 86.4688 37.4609 86.9102 37.4609C87.6836 37.4609 88.2656 37.6484 88.6562 38.0234C89.0469 38.3945 89.2422 38.9902 89.2422 39.8105V44H88.2695ZM98.5059 42.248C98.5059 42.8457 98.2832 43.3066 97.8379 43.6309C97.3926 43.9551 96.7676 44.1172 95.9629 44.1172C95.1113 44.1172 94.4473 43.9824 93.9707 43.7129V42.8105C94.2793 42.9668 94.6094 43.0898 94.9609 43.1797C95.3164 43.2695 95.6582 43.3145 95.9863 43.3145C96.4941 43.3145 96.8848 43.2344 97.1582 43.0742C97.4316 42.9102 97.5684 42.6621 97.5684 42.3301C97.5684 42.0801 97.459 41.8672 97.2402 41.6914C97.0254 41.5117 96.6035 41.3008 95.9746 41.0586C95.377 40.8359 94.9512 40.6426 94.6973 40.4785C94.4473 40.3105 94.2598 40.1211 94.1348 39.9102C94.0137 39.6992 93.9531 39.4473 93.9531 39.1543C93.9531 38.6309 94.166 38.2188 94.5918 37.918C95.0176 37.6133 95.6016 37.4609 96.3438 37.4609C97.0352 37.4609 97.7109 37.6016 98.3711 37.8828L98.0254 38.6738C97.3809 38.4082 96.7969 38.2754 96.2734 38.2754C95.8125 38.2754 95.4648 38.3477 95.2305 38.4922C94.9961 38.6367 94.8789 38.8359 94.8789 39.0898C94.8789 39.2617 94.9219 39.4082 95.0078 39.5293C95.0977 39.6504 95.2402 39.7656 95.4355 39.875C95.6309 39.9844 96.0059 40.1426 96.5605 40.3496C97.3223 40.627 97.8359 40.9062 98.1016 41.1875C98.3711 41.4688 98.5059 41.8223 98.5059 42.248ZM104.043 44L103.85 43.0859H103.803C103.482 43.4883 103.162 43.7617 102.842 43.9062C102.525 44.0469 102.129 44.1172 101.652 44.1172C101.016 44.1172 100.516 43.9531 100.152 43.625C99.793 43.2969 99.6133 42.8301 99.6133 42.2246C99.6133 40.9277 100.65 40.248 102.725 40.1855L103.814 40.1504V39.752C103.814 39.248 103.705 38.877 103.486 38.6387C103.271 38.3965 102.926 38.2754 102.449 38.2754C101.914 38.2754 101.309 38.4395 100.633 38.7676L100.334 38.0234C100.65 37.8516 100.996 37.7168 101.371 37.6191C101.75 37.5215 102.129 37.4727 102.508 37.4727C103.273 37.4727 103.84 37.6426 104.207 37.9824C104.578 38.3223 104.764 38.8672 104.764 39.6172V44H104.043ZM101.846 43.3145C102.451 43.3145 102.926 43.1484 103.27 42.8164C103.617 42.4844 103.791 42.0195 103.791 41.4219V40.8418L102.818 40.8828C102.045 40.9102 101.486 41.0312 101.143 41.2461C100.803 41.457 100.633 41.7871 100.633 42.2363C100.633 42.5879 100.738 42.8555 100.949 43.0391C101.164 43.2227 101.463 43.3145 101.846 43.3145ZM111.168 44V39.8457C111.168 39.3223 111.049 38.9316 110.811 38.6738C110.572 38.416 110.199 38.2871 109.691 38.2871C109.02 38.2871 108.527 38.4688 108.215 38.832C107.902 39.1953 107.746 39.7949 107.746 40.6309V44H106.773V37.5781H107.564L107.723 38.457H107.77C107.969 38.1406 108.248 37.8965 108.607 37.7246C108.967 37.5488 109.367 37.4609 109.809 37.4609C110.582 37.4609 111.164 37.6484 111.555 38.0234C111.945 38.3945 112.141 38.9902 112.141 39.8105V44H111.168ZM116.711 44.1172C115.781 44.1172 115.061 43.832 114.549 43.2617C114.041 42.6875 113.787 41.877 113.787 40.8301C113.787 39.7559 114.045 38.9258 114.561 38.3398C115.08 37.7539 115.818 37.4609 116.775 37.4609C117.084 37.4609 117.393 37.4941 117.701 37.5605C118.01 37.627 118.252 37.7051 118.428 37.7949L118.129 38.6211C117.914 38.5352 117.68 38.4648 117.426 38.4102C117.172 38.3516 116.947 38.3223 116.752 38.3223C115.447 38.3223 114.795 39.1543 114.795 40.8184C114.795 41.6074 114.953 42.2129 115.27 42.6348C115.59 43.0566 116.062 43.2676 116.688 43.2676C117.223 43.2676 117.771 43.1523 118.334 42.9219V43.7832C117.904 44.0059 117.363 44.1172 116.711 44.1172ZM121.938 43.3145C122.109 43.3145 122.275 43.3027 122.436 43.2793C122.596 43.252 122.723 43.2246 122.816 43.1973V43.9414C122.711 43.9922 122.555 44.0332 122.348 44.0645C122.145 44.0996 121.961 44.1172 121.797 44.1172C120.555 44.1172 119.934 43.4629 119.934 42.1543V38.334H119.014V37.8652L119.934 37.4609L120.344 36.0898H120.906V37.5781H122.77V38.334H120.906V42.1133C120.906 42.5 120.998 42.7969 121.182 43.0039C121.365 43.2109 121.617 43.3145 121.938 43.3145ZM125.078 44H124.105V37.5781H125.078V44ZM124.023 35.8379C124.023 35.6152 124.078 35.4531 124.188 35.3516C124.297 35.2461 124.434 35.1934 124.598 35.1934C124.754 35.1934 124.889 35.2461 125.002 35.3516C125.115 35.457 125.172 35.6191 125.172 35.8379C125.172 36.0566 125.115 36.2207 125.002 36.3301C124.889 36.4355 124.754 36.4883 124.598 36.4883C124.434 36.4883 124.297 36.4355 124.188 36.3301C124.078 36.2207 124.023 36.0566 124.023 35.8379ZM132.684 40.7832C132.684 41.8301 132.42 42.6484 131.893 43.2383C131.365 43.8242 130.637 44.1172 129.707 44.1172C129.133 44.1172 128.623 43.9824 128.178 43.7129C127.732 43.4434 127.389 43.0566 127.146 42.5527C126.904 42.0488 126.783 41.459 126.783 40.7832C126.783 39.7363 127.045 38.9219 127.568 38.3398C128.092 37.7539 128.818 37.4609 129.748 37.4609C130.646 37.4609 131.359 37.7598 131.887 38.3574C132.418 38.9551 132.684 39.7637 132.684 40.7832ZM127.791 40.7832C127.791 41.6035 127.955 42.2285 128.283 42.6582C128.611 43.0879 129.094 43.3027 129.73 43.3027C130.367 43.3027 130.85 43.0898 131.178 42.6641C131.51 42.2344 131.676 41.6074 131.676 40.7832C131.676 39.9668 131.51 39.3477 131.178 38.9258C130.85 38.5 130.363 38.2871 129.719 38.2871C129.082 38.2871 128.602 38.4961 128.277 38.9141C127.953 39.332 127.791 39.9551 127.791 40.7832ZM138.789 44V39.8457C138.789 39.3223 138.67 38.9316 138.432 38.6738C138.193 38.416 137.82 38.2871 137.312 38.2871C136.641 38.2871 136.148 38.4688 135.836 38.832C135.523 39.1953 135.367 39.7949 135.367 40.6309V44H134.395V37.5781H135.186L135.344 38.457H135.391C135.59 38.1406 135.869 37.8965 136.229 37.7246C136.588 37.5488 136.988 37.4609 137.43 37.4609C138.203 37.4609 138.785 37.6484 139.176 38.0234C139.566 38.3945 139.762 38.9902 139.762 39.8105V44H138.789ZM144.479 44.1172C143.529 44.1172 142.779 43.8281 142.229 43.25C141.682 42.6719 141.408 41.8691 141.408 40.8418C141.408 39.8066 141.662 38.9844 142.17 38.375C142.682 37.7656 143.367 37.4609 144.227 37.4609C145.031 37.4609 145.668 37.7266 146.137 38.2578C146.605 38.7852 146.84 39.4824 146.84 40.3496V40.9648H142.416C142.436 41.7188 142.625 42.291 142.984 42.6816C143.348 43.0723 143.857 43.2676 144.514 43.2676C145.205 43.2676 145.889 43.123 146.564 42.834V43.7012C146.221 43.8496 145.895 43.9551 145.586 44.0176C145.281 44.084 144.912 44.1172 144.479 44.1172ZM144.215 38.2754C143.699 38.2754 143.287 38.4434 142.979 38.7793C142.674 39.1152 142.494 39.5801 142.439 40.1738H145.797C145.797 39.5605 145.66 39.0918 145.387 38.7676C145.113 38.4395 144.723 38.2754 144.215 38.2754ZM152.875 43.1387H152.822C152.373 43.791 151.701 44.1172 150.807 44.1172C149.967 44.1172 149.312 43.8301 148.844 43.2559C148.379 42.6816 148.146 41.8652 148.146 40.8066C148.146 39.748 148.381 38.9258 148.85 38.3398C149.318 37.7539 149.971 37.4609 150.807 37.4609C151.678 37.4609 152.346 37.7773 152.811 38.4102H152.887L152.846 37.9473L152.822 37.4961V34.8828H153.795V44H153.004L152.875 43.1387ZM150.93 43.3027C151.594 43.3027 152.074 43.123 152.371 42.7637C152.672 42.4004 152.822 41.8164 152.822 41.0117V40.8066C152.822 39.8965 152.67 39.248 152.365 38.8613C152.064 38.4707 151.582 38.2754 150.918 38.2754C150.348 38.2754 149.91 38.498 149.605 38.9434C149.305 39.3848 149.154 40.0098 149.154 40.8184C149.154 41.6387 149.305 42.2578 149.605 42.6758C149.906 43.0938 150.348 43.3027 150.93 43.3027ZM159.953 44H158.98V37.5781H159.953V44ZM158.898 35.8379C158.898 35.6152 158.953 35.4531 159.062 35.3516C159.172 35.2461 159.309 35.1934 159.473 35.1934C159.629 35.1934 159.764 35.2461 159.877 35.3516C159.99 35.457 160.047 35.6191 160.047 35.8379C160.047 36.0566 159.99 36.2207 159.877 36.3301C159.764 36.4355 159.629 36.4883 159.473 36.4883C159.309 36.4883 159.172 36.4355 159.062 36.3301C158.953 36.2207 158.898 36.0566 158.898 35.8379ZM166.41 44V39.8457C166.41 39.3223 166.291 38.9316 166.053 38.6738C165.814 38.416 165.441 38.2871 164.934 38.2871C164.262 38.2871 163.77 38.4688 163.457 38.832C163.145 39.1953 162.988 39.7949 162.988 40.6309V44H162.016V37.5781H162.807L162.965 38.457H163.012C163.211 38.1406 163.49 37.8965 163.85 37.7246C164.209 37.5488 164.609 37.4609 165.051 37.4609C165.824 37.4609 166.406 37.6484 166.797 38.0234C167.188 38.3945 167.383 38.9902 167.383 39.8105V44H166.41ZM175.662 44H174.713V37.8945C174.713 37.3867 174.729 36.9062 174.76 36.4531C174.678 36.5352 174.586 36.6211 174.484 36.7109C174.383 36.8008 173.918 37.1816 173.09 37.8535L172.574 37.1855L174.842 35.4336H175.662V44ZM181.604 38.7676C182.506 38.7676 183.215 38.9922 183.73 39.4414C184.25 39.8867 184.51 40.498 184.51 41.2754C184.51 42.1621 184.227 42.8574 183.66 43.3613C183.098 43.8652 182.32 44.1172 181.328 44.1172C180.363 44.1172 179.627 43.9629 179.119 43.6543V42.7168C179.393 42.8926 179.732 43.0312 180.139 43.1328C180.545 43.2305 180.945 43.2793 181.34 43.2793C182.027 43.2793 182.561 43.1172 182.939 42.793C183.322 42.4688 183.514 42 183.514 41.3867C183.514 40.1914 182.781 39.5938 181.316 39.5938C180.945 39.5938 180.449 39.6504 179.828 39.7637L179.324 39.4414L179.646 35.4336H183.906V36.3301H180.479L180.262 38.9023C180.711 38.8125 181.158 38.7676 181.604 38.7676ZM185.699 41.2285V40.3379H188.576V41.2285H185.699ZM195.291 44H189.66V43.1621L191.916 40.8945C192.604 40.1992 193.057 39.7031 193.275 39.4062C193.494 39.1094 193.658 38.8203 193.768 38.5391C193.877 38.2578 193.932 37.9551 193.932 37.6309C193.932 37.1738 193.793 36.8125 193.516 36.5469C193.238 36.2773 192.854 36.1426 192.361 36.1426C192.006 36.1426 191.668 36.2012 191.348 36.3184C191.031 36.4355 190.678 36.6484 190.287 36.957L189.771 36.2949C190.561 35.6387 191.42 35.3105 192.35 35.3105C193.154 35.3105 193.785 35.5176 194.242 35.9316C194.699 36.3418 194.928 36.8945 194.928 37.5898C194.928 38.1328 194.775 38.6699 194.471 39.2012C194.166 39.7324 193.596 40.4043 192.76 41.2168L190.885 43.0508V43.0977H195.291V44ZM202.205 39.7051C202.205 41.1855 201.971 42.291 201.502 43.0215C201.037 43.752 200.324 44.1172 199.363 44.1172C198.441 44.1172 197.74 43.7441 197.26 42.998C196.779 42.248 196.539 41.1504 196.539 39.7051C196.539 38.2129 196.771 37.1055 197.236 36.3828C197.701 35.6602 198.41 35.2988 199.363 35.2988C200.293 35.2988 200.998 35.6758 201.479 36.4297C201.963 37.1836 202.205 38.2754 202.205 39.7051ZM197.523 39.7051C197.523 40.9512 197.67 41.8594 197.963 42.4297C198.256 42.9961 198.723 43.2793 199.363 43.2793C200.012 43.2793 200.48 42.9922 200.77 42.418C201.062 41.8398 201.209 40.9355 201.209 39.7051C201.209 38.4746 201.062 37.5742 200.77 37.0039C200.48 36.4297 200.012 36.1426 199.363 36.1426C198.723 36.1426 198.256 36.4258 197.963 36.9922C197.67 37.5547 197.523 38.459 197.523 39.7051ZM212.025 44V39.8223C212.025 39.3105 211.916 38.9277 211.697 38.6738C211.479 38.416 211.139 38.2871 210.678 38.2871C210.072 38.2871 209.625 38.4609 209.336 38.8086C209.047 39.1562 208.902 39.6914 208.902 40.4141V44H207.93V39.8223C207.93 39.3105 207.82 38.9277 207.602 38.6738C207.383 38.416 207.041 38.2871 206.576 38.2871C205.967 38.2871 205.52 38.4707 205.234 38.8379C204.953 39.2012 204.812 39.7988 204.812 40.6309V44H203.84V37.5781H204.631L204.789 38.457H204.836C205.02 38.1445 205.277 37.9004 205.609 37.7246C205.945 37.5488 206.32 37.4609 206.734 37.4609C207.738 37.4609 208.395 37.8242 208.703 38.5508H208.75C208.941 38.2148 209.219 37.9492 209.582 37.7539C209.945 37.5586 210.359 37.4609 210.824 37.4609C211.551 37.4609 212.094 37.6484 212.453 38.0234C212.816 38.3945 212.998 38.9902 212.998 39.8105V44H212.025ZM215.98 44H215.008V37.5781H215.98V44ZM214.926 35.8379C214.926 35.6152 214.98 35.4531 215.09 35.3516C215.199 35.2461 215.336 35.1934 215.5 35.1934C215.656 35.1934 215.791 35.2461 215.904 35.3516C216.018 35.457 216.074 35.6191 216.074 35.8379C216.074 36.0566 216.018 36.2207 215.904 36.3301C215.791 36.4355 215.656 36.4883 215.5 36.4883C215.336 36.4883 215.199 36.4355 215.09 36.3301C214.98 36.2207 214.926 36.0566 214.926 35.8379ZM222.438 44V39.8457C222.438 39.3223 222.318 38.9316 222.08 38.6738C221.842 38.416 221.469 38.2871 220.961 38.2871C220.289 38.2871 219.797 38.4688 219.484 38.832C219.172 39.1953 219.016 39.7949 219.016 40.6309V44H218.043V37.5781H218.834L218.992 38.457H219.039C219.238 38.1406 219.518 37.8965 219.877 37.7246C220.236 37.5488 220.637 37.4609 221.078 37.4609C221.852 37.4609 222.434 37.6484 222.824 38.0234C223.215 38.3945 223.41 38.9902 223.41 39.8105V44H222.438Z" fill="#944104"/>
</svg>
