<svg width="30" height="30" viewBox="0 0 30 30" fill="none" xmlns="http://www.w3.org/2000/svg">
<path d="M30 0V9.56289H26.6749V8.35914H28.943V1.20385H1.05704V8.35914H3.32471V9.56289H0V0H30ZM9.39793 6.13311H20.4632V7.15208H9.39793V6.13311ZM9.39793 9.15835H20.4632V10.1773H9.39793V9.15835ZM9.39793 12.1836H20.4632V13.2026H9.39793V12.1836ZM17.8438 23.028C15.7698 23.3647 13.9358 23.2642 14.219 26.4192C14.2897 27.2042 13.2406 27.326 13.1704 26.5408C12.7895 22.3039 14.8228 22.3053 17.6955 21.8381C17.8868 21.8073 18.063 21.7519 18.2365 21.6614V17.1661H16.5596V19.8092C16.5596 20.6009 15.5031 20.6009 15.5031 19.8092V17.1661H13.5694V19.8092C13.5694 20.6009 12.512 20.6009 12.512 19.8092V17.1661H10.5782V19.8092C10.5782 20.6009 9.52175 20.6009 9.52175 19.8092V17.1661H7.96802V26.3138C7.96802 27.5525 8.85781 28.5653 9.94515 28.5653C12.6581 28.5653 17.181 29.6747 19.0501 27.0914C19.9586 25.8357 20.8017 24.0417 21.6055 22.6354C22.2013 21.5936 22.7859 20.5713 23.0654 19.8678C23.5889 18.5504 22.7011 18.0689 21.9365 18.9718C21.2347 19.8014 20.6545 20.7971 19.9494 21.6434C19.3465 22.3664 18.7332 22.8835 17.8444 23.0284L17.8438 23.028ZM19.2928 20.6827C19.9465 19.8669 20.5077 18.9294 21.1768 18.1396C22.7558 16.2735 25.0432 17.8043 24.0266 20.3612C23.7181 21.1391 23.1089 22.2037 22.489 23.2883C21.6588 24.7401 20.8043 26.5517 19.8628 27.8528C17.5984 30.982 13.1016 29.7684 9.94449 29.7684C8.27625 29.7684 6.91051 28.2136 6.91051 26.3134V17.1657H4.43994V7.39332H2.20167V2.16925H27.797V7.39332H25.4217V17.1657H19.2927V20.6823L19.2928 20.6827ZM25.4217 3.37251V6.18888H26.7406V3.37251H25.4217ZM4.43999 6.18888V3.37251H3.25875V6.18888H4.43999ZM24.3646 3.37251H5.49754V15.9623H24.3646V3.37251Z" fill="#F2A053"/>
</svg>
