<svg width="58" height="46" viewBox="0 0 58 46" fill="none" xmlns="http://www.w3.org/2000/svg">
<g clip-path="url(#clip0_3246_125)">
<path fill-rule="evenodd" clip-rule="evenodd" d="M35.6141 33.799C35.3224 33.8921 35.0808 34.0918 34.9432 34.3548C34.657 34.902 34.8895 35.5676 35.4629 35.8409L38.2843 37.1878L30.3951 41.7071C29.4782 42.2323 28.3388 42.2354 27.419 41.7148L19.5146 37.2425C19.4253 37.1918 19.4246 37.202 19.5182 37.1584L22.3513 35.847C22.9276 35.5799 23.1681 34.9175 22.8887 34.3669C22.7547 34.1026 22.5157 33.8998 22.2253 33.8033C21.9346 33.7069 21.6156 33.7248 21.3385 33.8528L18.5054 35.1651C16.863 35.9256 16.7609 38.2598 18.3312 39.1483L26.2356 43.6216C27.8852 44.5549 29.9444 44.5496 31.5889 43.6077L39.4835 39.0843C40.9985 38.2166 40.9079 35.9635 39.3275 35.2093L36.5009 33.859C36.2253 33.7273 35.9064 33.706 35.6144 33.799L35.6141 33.799Z" fill="#20446C"/>
<path fill-rule="evenodd" clip-rule="evenodd" d="M28.9177 0C21.7894 0 15.9832 5.53298 15.9724 12.3363V12.3382V12.353V12.3651V12.3666C15.9863 20.6874 21.7385 28.5808 26.0299 36.3151C26.6781 37.4834 27.6676 38.3598 28.9238 38.3598C30.18 38.3594 31.1689 37.4846 31.8203 36.3161C36.1637 28.5254 41.8637 20.6757 41.8628 12.3557C41.8628 5.54476 36.0526 0.000380583 28.9167 0.000380583L28.9177 0ZM28.9122 4.49831C33.4427 4.49831 37.1412 8.02929 37.1412 12.3551C37.1412 16.6808 33.4427 20.2113 28.9122 20.2113C24.3816 20.2113 20.684 16.6812 20.684 12.3551C20.684 8.02929 24.3815 4.49831 28.9122 4.49831Z" fill="#20446C"/>
</g>
<defs>
<clipPath id="clip0_3246_125">
<rect width="58" height="46" fill="white"/>
</clipPath>
</defs>
</svg>
